%TF.GenerationSoftware,Altium Limited,Altium Designer,23.1.1 (15)*%
G04 Layer_Color=8421504*
%FSLAX45Y45*%
%MOMM*%
%TF.SameCoordinates,3FBC52AE-4862-4018-B763-16E4B67C7164*%
%TF.FilePolarity,Positive*%
%TF.FileFunction,Paste,Top*%
%TF.Part,Single*%
G01*
G75*
%TA.AperFunction,SMDPad,CuDef*%
G04:AMPARAMS|DCode=11|XSize=0.64008mm|YSize=0.6mm|CornerRadius=0mm|HoleSize=0mm|Usage=FLASHONLY|Rotation=225.000|XOffset=0mm|YOffset=0mm|HoleType=Round|Shape=Rectangle|*
%AMROTATEDRECTD11*
4,1,4,0.01417,0.43843,0.43843,0.01417,-0.01417,-0.43843,-0.43843,-0.01417,0.01417,0.43843,0.0*
%
%ADD11ROTATEDRECTD11*%

G04:AMPARAMS|DCode=12|XSize=0.64008mm|YSize=0.6mm|CornerRadius=0mm|HoleSize=0mm|Usage=FLASHONLY|Rotation=315.000|XOffset=0mm|YOffset=0mm|HoleType=Round|Shape=Rectangle|*
%AMROTATEDRECTD12*
4,1,4,-0.43843,0.01417,-0.01417,0.43843,0.43843,-0.01417,0.01417,-0.43843,-0.43843,0.01417,0.0*
%
%ADD12ROTATEDRECTD12*%

%ADD13P,1.41421X4X90.0*%
%ADD14P,1.41421X4X180.0*%
%TA.AperFunction,ConnectorPad*%
%ADD15R,0.70000X1.00000*%
%ADD16R,0.70000X0.30000*%
%TA.AperFunction,SMDPad,CuDef*%
%ADD17R,0.70000X1.00000*%
%ADD18R,0.70000X0.30000*%
%TA.AperFunction,BGAPad,CuDef*%
%ADD19R,0.35000X0.35000*%
%TA.AperFunction,SMDPad,CuDef*%
%ADD20R,0.42000X0.42000*%
%ADD21R,0.24000X0.90000*%
%ADD22R,1.00000X2.90000*%
%ADD23R,0.90000X0.24000*%
%TA.AperFunction,BGAPad,CuDef*%
%ADD24C,0.41000*%
%ADD25C,0.35000*%
%TA.AperFunction,SMDPad,CuDef*%
G04:AMPARAMS|DCode=27|XSize=0.86107mm|YSize=0.23928mm|CornerRadius=0.11964mm|HoleSize=0mm|Usage=FLASHONLY|Rotation=225.000|XOffset=0mm|YOffset=0mm|HoleType=Round|Shape=RoundedRectangle|*
%AMROUNDEDRECTD27*
21,1,0.86107,0.00000,0,0,225.0*
21,1,0.62178,0.23928,0,0,225.0*
1,1,0.23928,-0.21983,-0.21983*
1,1,0.23928,0.21983,0.21983*
1,1,0.23928,0.21983,0.21983*
1,1,0.23928,-0.21983,-0.21983*
%
%ADD27ROUNDEDRECTD27*%
G04:AMPARAMS|DCode=28|XSize=0.86107mm|YSize=0.23928mm|CornerRadius=0mm|HoleSize=0mm|Usage=FLASHONLY|Rotation=225.000|XOffset=0mm|YOffset=0mm|HoleType=Round|Shape=Rectangle|*
%AMROTATEDRECTD28*
4,1,4,0.21983,0.38903,0.38903,0.21983,-0.21983,-0.38903,-0.38903,-0.21983,0.21983,0.38903,0.0*
%
%ADD28ROTATEDRECTD28*%

%ADD29R,0.60000X0.50000*%
%ADD30R,0.50000X0.60000*%
G04:AMPARAMS|DCode=33|XSize=1.2mm|YSize=1.4mm|CornerRadius=0mm|HoleSize=0mm|Usage=FLASHONLY|Rotation=135.000|XOffset=0mm|YOffset=0mm|HoleType=Round|Shape=Rectangle|*
%AMROTATEDRECTD33*
4,1,4,0.91924,0.07071,-0.07071,-0.91924,-0.91924,-0.07071,0.07071,0.91924,0.91924,0.07071,0.0*
%
%ADD33ROTATEDRECTD33*%

%ADD34R,0.64008X0.60000*%
%TA.AperFunction,BGAPad,CuDef*%
%ADD35C,0.25500*%
%ADD36C,0.22100*%
%TA.AperFunction,SMDPad,CuDef*%
%ADD37R,0.60000X0.64008*%
G04:AMPARAMS|DCode=38|XSize=0.2mm|YSize=0.5mm|CornerRadius=0.05mm|HoleSize=0mm|Usage=FLASHONLY|Rotation=0.000|XOffset=0mm|YOffset=0mm|HoleType=Round|Shape=RoundedRectangle|*
%AMROUNDEDRECTD38*
21,1,0.20000,0.40000,0,0,0.0*
21,1,0.10000,0.50000,0,0,0.0*
1,1,0.10000,0.05000,-0.20000*
1,1,0.10000,-0.05000,-0.20000*
1,1,0.10000,-0.05000,0.20000*
1,1,0.10000,0.05000,0.20000*
%
%ADD38ROUNDEDRECTD38*%
G04:AMPARAMS|DCode=40|XSize=0.565mm|YSize=0.2mm|CornerRadius=0.025mm|HoleSize=0mm|Usage=FLASHONLY|Rotation=180.000|XOffset=0mm|YOffset=0mm|HoleType=Round|Shape=RoundedRectangle|*
%AMROUNDEDRECTD40*
21,1,0.56500,0.15000,0,0,180.0*
21,1,0.51500,0.20000,0,0,180.0*
1,1,0.05000,-0.25750,0.07500*
1,1,0.05000,0.25750,0.07500*
1,1,0.05000,0.25750,-0.07500*
1,1,0.05000,-0.25750,-0.07500*
%
%ADD40ROUNDEDRECTD40*%
G04:AMPARAMS|DCode=43|XSize=0.84mm|YSize=0.22mm|CornerRadius=0.0275mm|HoleSize=0mm|Usage=FLASHONLY|Rotation=45.000|XOffset=0mm|YOffset=0mm|HoleType=Round|Shape=RoundedRectangle|*
%AMROUNDEDRECTD43*
21,1,0.84000,0.16500,0,0,45.0*
21,1,0.78500,0.22000,0,0,45.0*
1,1,0.05500,0.33588,0.21920*
1,1,0.05500,-0.21920,-0.33588*
1,1,0.05500,-0.33588,-0.21920*
1,1,0.05500,0.21920,0.33588*
%
%ADD43ROUNDEDRECTD43*%
G04:AMPARAMS|DCode=44|XSize=0.84mm|YSize=0.22mm|CornerRadius=0.0275mm|HoleSize=0mm|Usage=FLASHONLY|Rotation=135.000|XOffset=0mm|YOffset=0mm|HoleType=Round|Shape=RoundedRectangle|*
%AMROUNDEDRECTD44*
21,1,0.84000,0.16500,0,0,135.0*
21,1,0.78500,0.22000,0,0,135.0*
1,1,0.05500,-0.21920,0.33588*
1,1,0.05500,0.33588,-0.21920*
1,1,0.05500,0.21920,-0.33588*
1,1,0.05500,-0.33588,0.21920*
%
%ADD44ROUNDEDRECTD44*%
G04:AMPARAMS|DCode=45|XSize=0.19247mm|YSize=0.63107mm|CornerRadius=0.09624mm|HoleSize=0mm|Usage=FLASHONLY|Rotation=45.000|XOffset=0mm|YOffset=0mm|HoleType=Round|Shape=RoundedRectangle|*
%AMROUNDEDRECTD45*
21,1,0.19247,0.43859,0,0,45.0*
21,1,0.00000,0.63107,0,0,45.0*
1,1,0.19247,0.15507,-0.15506*
1,1,0.19247,0.15506,-0.15507*
1,1,0.19247,-0.15507,0.15506*
1,1,0.19247,-0.15506,0.15507*
%
%ADD45ROUNDEDRECTD45*%
G04:AMPARAMS|DCode=46|XSize=0.63107mm|YSize=0.19247mm|CornerRadius=0.09624mm|HoleSize=0mm|Usage=FLASHONLY|Rotation=45.000|XOffset=0mm|YOffset=0mm|HoleType=Round|Shape=RoundedRectangle|*
%AMROUNDEDRECTD46*
21,1,0.63107,0.00000,0,0,45.0*
21,1,0.43859,0.19247,0,0,45.0*
1,1,0.19247,0.15507,0.15506*
1,1,0.19247,-0.15506,-0.15507*
1,1,0.19247,-0.15507,-0.15506*
1,1,0.19247,0.15506,0.15507*
%
%ADD46ROUNDEDRECTD46*%
G04:AMPARAMS|DCode=47|XSize=0.63107mm|YSize=0.19247mm|CornerRadius=0mm|HoleSize=0mm|Usage=FLASHONLY|Rotation=45.000|XOffset=0mm|YOffset=0mm|HoleType=Round|Shape=Rectangle|*
%AMROTATEDRECTD47*
4,1,4,-0.15506,-0.29117,-0.29117,-0.15506,0.15506,0.29117,0.29117,0.15506,-0.15506,-0.29117,0.0*
%
%ADD47ROTATEDRECTD47*%

G04:AMPARAMS|DCode=49|XSize=0.95mm|YSize=0.85mm|CornerRadius=0mm|HoleSize=0mm|Usage=FLASHONLY|Rotation=45.000|XOffset=0mm|YOffset=0mm|HoleType=Round|Shape=Rectangle|*
%AMROTATEDRECTD49*
4,1,4,-0.03535,-0.63640,-0.63640,-0.03535,0.03535,0.63640,0.63640,0.03535,-0.03535,-0.63640,0.0*
%
%ADD49ROTATEDRECTD49*%

G04:AMPARAMS|DCode=50|XSize=1mm|YSize=0.6mm|CornerRadius=0mm|HoleSize=0mm|Usage=FLASHONLY|Rotation=45.000|XOffset=0mm|YOffset=0mm|HoleType=Round|Shape=Rectangle|*
%AMROTATEDRECTD50*
4,1,4,-0.14142,-0.56569,-0.56569,-0.14142,0.14142,0.56569,0.56569,0.14142,-0.14142,-0.56569,0.0*
%
%ADD50ROTATEDRECTD50*%

G04:AMPARAMS|DCode=51|XSize=1.45mm|YSize=1.4mm|CornerRadius=0mm|HoleSize=0mm|Usage=FLASHONLY|Rotation=45.000|XOffset=0mm|YOffset=0mm|HoleType=Round|Shape=Rectangle|*
%AMROTATEDRECTD51*
4,1,4,-0.01768,-1.00763,-1.00763,-0.01768,0.01768,1.00763,1.00763,0.01768,-0.01768,-1.00763,0.0*
%
%ADD51ROTATEDRECTD51*%

G04:AMPARAMS|DCode=52|XSize=1.2mm|YSize=3.79mm|CornerRadius=0mm|HoleSize=0mm|Usage=FLASHONLY|Rotation=45.000|XOffset=0mm|YOffset=0mm|HoleType=Round|Shape=Rectangle|*
%AMROTATEDRECTD52*
4,1,4,0.91570,-1.76423,-1.76423,0.91570,-0.91570,1.76423,1.76423,-0.91570,0.91570,-1.76423,0.0*
%
%ADD52ROTATEDRECTD52*%

G04:AMPARAMS|DCode=53|XSize=0.6mm|YSize=1.25mm|CornerRadius=0mm|HoleSize=0mm|Usage=FLASHONLY|Rotation=225.000|XOffset=0mm|YOffset=0mm|HoleType=Round|Shape=Rectangle|*
%AMROTATEDRECTD53*
4,1,4,-0.22981,0.65407,0.65407,-0.22981,0.22981,-0.65407,-0.65407,0.22981,-0.22981,0.65407,0.0*
%
%ADD53ROTATEDRECTD53*%

G04:AMPARAMS|DCode=54|XSize=0.74mm|YSize=0.26mm|CornerRadius=0mm|HoleSize=0mm|Usage=FLASHONLY|Rotation=315.000|XOffset=0mm|YOffset=0mm|HoleType=Round|Shape=Rectangle|*
%AMROTATEDRECTD54*
4,1,4,-0.35356,0.16971,-0.16971,0.35356,0.35356,-0.16971,0.16971,-0.35356,-0.35356,0.16971,0.0*
%
%ADD54ROTATEDRECTD54*%

%ADD55R,1.00000X1.80000*%
%ADD56R,1.05000X0.70000*%
%ADD57R,0.52000X0.70000*%
G04:AMPARAMS|DCode=58|XSize=0.5mm|YSize=0.2mm|CornerRadius=0.05mm|HoleSize=0mm|Usage=FLASHONLY|Rotation=180.000|XOffset=0mm|YOffset=0mm|HoleType=Round|Shape=RoundedRectangle|*
%AMROUNDEDRECTD58*
21,1,0.50000,0.10000,0,0,180.0*
21,1,0.40000,0.20000,0,0,180.0*
1,1,0.10000,-0.20000,0.05000*
1,1,0.10000,0.20000,0.05000*
1,1,0.10000,0.20000,-0.05000*
1,1,0.10000,-0.20000,-0.05000*
%
%ADD58ROUNDEDRECTD58*%
%TA.AperFunction,NonConductor*%
G04:AMPARAMS|DCode=99|XSize=0.85184mm|YSize=1.05184mm|CornerRadius=0mm|HoleSize=0mm|Usage=FLASHONLY|Rotation=225.000|XOffset=0mm|YOffset=0mm|HoleType=Round|Shape=Rectangle|*
%AMROTATEDRECTD99*
4,1,4,-0.07071,0.67305,0.67305,-0.07071,0.07071,-0.67305,-0.67305,0.07071,-0.07071,0.67305,0.0*
%
%ADD99ROTATEDRECTD99*%

%ADD100P,0.33941X4X180.0*%
%ADD101R,0.50000X0.30000*%
%ADD102P,1.74413X4X90.0*%
%TA.AperFunction,SMDPad,CuDef*%
%ADD103P,3.30926X4X90.0*%
G36*
X9702362Y6049097D02*
X9686362Y6033097D01*
X9665361D01*
X9664367Y6033097D01*
X9662529Y6033858D01*
X9661123Y6035265D01*
X9660361Y6037102D01*
Y6038097D01*
X9660362D01*
Y6050097D01*
Y6051092D01*
X9661123Y6052929D01*
X9662529Y6054336D01*
X9664367Y6055097D01*
X9665361D01*
X9665362Y6055097D01*
X9702362D01*
Y6049097D01*
D02*
G37*
G36*
X9702366Y5991094D02*
Y5985094D01*
X9665366Y5985094D01*
X9664371D01*
X9662533Y5985855D01*
X9661127Y5987262D01*
X9660366Y5989099D01*
Y5990094D01*
Y6002094D01*
X9660365D01*
Y6003089D01*
X9661127Y6004926D01*
X9662533Y6006333D01*
X9664371Y6007094D01*
X9665365Y6007094D01*
X9686366Y6007094D01*
X9702366Y5991094D01*
D02*
G37*
G36*
X3637830Y5742736D02*
X3639237Y5741330D01*
X3639998Y5739492D01*
Y5738498D01*
Y5681498D01*
Y5680503D01*
X3639237Y5678665D01*
X3637830Y5677259D01*
X3635992Y5676498D01*
X3624003D01*
X3622165Y5677259D01*
X3620759Y5678665D01*
X3619998Y5680503D01*
Y5681498D01*
Y5738498D01*
Y5739492D01*
X3620759Y5741330D01*
X3622165Y5742736D01*
X3624003Y5743498D01*
X3635992D01*
X3637830Y5742736D01*
D02*
G37*
G36*
X3597830D02*
X3599237Y5741330D01*
X3599998Y5739492D01*
Y5738498D01*
Y5681498D01*
Y5680503D01*
X3599237Y5678665D01*
X3597830Y5677259D01*
X3595992Y5676498D01*
X3584003D01*
X3582166Y5677259D01*
X3580759Y5678665D01*
X3579998Y5680503D01*
Y5681498D01*
Y5738498D01*
Y5739492D01*
X3580759Y5741330D01*
X3582166Y5742736D01*
X3584003Y5743498D01*
X3595992D01*
X3597830Y5742736D01*
D02*
G37*
G36*
X3637830Y5612736D02*
X3639237Y5611330D01*
X3639998Y5609492D01*
Y5608498D01*
Y5551498D01*
Y5550503D01*
X3639237Y5548665D01*
X3637830Y5547259D01*
X3635992Y5546498D01*
X3624003D01*
X3622165Y5547259D01*
X3620759Y5548665D01*
X3619998Y5550503D01*
Y5551498D01*
Y5608498D01*
Y5609492D01*
X3620759Y5611330D01*
X3622165Y5612736D01*
X3624003Y5613498D01*
X3635992D01*
X3637830Y5612736D01*
D02*
G37*
G36*
X3597830D02*
X3599237Y5611330D01*
X3599998Y5609492D01*
Y5608498D01*
Y5551498D01*
Y5550503D01*
X3599237Y5548665D01*
X3597830Y5547259D01*
X3595992Y5546498D01*
X3584003D01*
X3582166Y5547259D01*
X3580759Y5548665D01*
X3579998Y5550503D01*
Y5551498D01*
Y5608498D01*
Y5609492D01*
X3580759Y5611330D01*
X3582166Y5612736D01*
X3584003Y5613498D01*
X3595992D01*
X3597830Y5612736D01*
D02*
G37*
G36*
X3675798Y5257900D02*
X3675998D01*
X3676298Y5257800D01*
X3676498D01*
X3676798Y5257700D01*
X3676998Y5257600D01*
X3677298Y5257500D01*
X3677498Y5257300D01*
X3677698Y5257200D01*
X3677898Y5257000D01*
X3678098Y5256900D01*
X3678298Y5256700D01*
X3678498Y5256500D01*
X3678698Y5256300D01*
X3678898Y5256100D01*
X3678998Y5255900D01*
X3679198Y5255700D01*
X3679298Y5255500D01*
X3679498Y5255300D01*
X3679598Y5255000D01*
X3679698Y5254800D01*
X3679798Y5254500D01*
Y5254300D01*
X3679898Y5254000D01*
Y5253800D01*
X3679998Y5253500D01*
Y5253300D01*
Y5253000D01*
Y5227000D01*
Y5226700D01*
Y5226500D01*
X3679898Y5226200D01*
Y5226000D01*
X3679798Y5225700D01*
Y5225500D01*
X3679698Y5225200D01*
X3679598Y5225000D01*
X3679498Y5224700D01*
X3679298Y5224500D01*
X3679198Y5224300D01*
X3678998Y5224100D01*
X3678898Y5223900D01*
X3678698Y5223700D01*
X3678498Y5223500D01*
X3678298Y5223300D01*
X3678098Y5223100D01*
X3677898Y5223000D01*
X3677698Y5222800D01*
X3677498Y5222700D01*
X3677298Y5222500D01*
X3676998Y5222400D01*
X3676798Y5222300D01*
X3676498Y5222200D01*
X3676298D01*
X3675998Y5222100D01*
X3675798D01*
X3675498Y5222000D01*
X3627998D01*
X3627698Y5222100D01*
X3627498D01*
X3627198Y5222200D01*
X3626998D01*
X3626698Y5222300D01*
X3626498Y5222400D01*
X3626198Y5222500D01*
X3625998Y5222700D01*
X3625798Y5222800D01*
X3625598Y5223000D01*
X3625398Y5223100D01*
X3625198Y5223300D01*
X3624998Y5223500D01*
X3624798Y5223700D01*
X3624598Y5223900D01*
X3624498Y5224100D01*
X3624298Y5224300D01*
X3624198Y5224500D01*
X3623998Y5224700D01*
X3623898Y5225000D01*
X3623798Y5225200D01*
X3623698Y5225500D01*
Y5225700D01*
X3623598Y5226000D01*
Y5226200D01*
X3623498Y5226500D01*
Y5226700D01*
Y5227000D01*
Y5253000D01*
Y5253300D01*
Y5253500D01*
X3623598Y5253800D01*
Y5254000D01*
X3623698Y5254300D01*
Y5254500D01*
X3623798Y5254800D01*
X3623898Y5255000D01*
X3623998Y5255300D01*
X3624198Y5255500D01*
X3624298Y5255700D01*
X3624498Y5255900D01*
X3624598Y5256100D01*
X3624798Y5256300D01*
X3624998Y5256500D01*
X3625198Y5256700D01*
X3625398Y5256900D01*
X3625598Y5257000D01*
X3625798Y5257200D01*
X3625998Y5257300D01*
X3626198Y5257500D01*
X3626498Y5257600D01*
X3626698Y5257700D01*
X3626998Y5257800D01*
X3627198D01*
X3627498Y5257900D01*
X3627698D01*
X3627998Y5258000D01*
X3675498D01*
X3675798Y5257900D01*
D02*
G37*
G36*
X3592298D02*
X3592498D01*
X3592798Y5257800D01*
X3592998D01*
X3593298Y5257700D01*
X3593498Y5257600D01*
X3593798Y5257500D01*
X3593998Y5257300D01*
X3594198Y5257200D01*
X3594398Y5257000D01*
X3594598Y5256900D01*
X3594798Y5256700D01*
X3594998Y5256500D01*
X3595198Y5256300D01*
X3595398Y5256100D01*
X3595498Y5255900D01*
X3595698Y5255700D01*
X3595798Y5255500D01*
X3595998Y5255300D01*
X3596098Y5255000D01*
X3596198Y5254800D01*
X3596298Y5254500D01*
Y5254300D01*
X3596398Y5254000D01*
Y5253800D01*
X3596498Y5253500D01*
Y5253300D01*
Y5253000D01*
Y5227000D01*
Y5226700D01*
Y5226500D01*
X3596398Y5226200D01*
Y5226000D01*
X3596298Y5225700D01*
Y5225500D01*
X3596198Y5225200D01*
X3596098Y5225000D01*
X3595998Y5224700D01*
X3595798Y5224500D01*
X3595698Y5224300D01*
X3595498Y5224100D01*
X3595398Y5223900D01*
X3595198Y5223700D01*
X3594998Y5223500D01*
X3594798Y5223300D01*
X3594598Y5223100D01*
X3594398Y5223000D01*
X3594198Y5222800D01*
X3593998Y5222700D01*
X3593798Y5222500D01*
X3593498Y5222400D01*
X3593298Y5222300D01*
X3592998Y5222200D01*
X3592798D01*
X3592498Y5222100D01*
X3592298D01*
X3591998Y5222000D01*
X3544498D01*
X3544198Y5222100D01*
X3543998D01*
X3543698Y5222200D01*
X3543498D01*
X3543198Y5222300D01*
X3542998Y5222400D01*
X3542698Y5222500D01*
X3542498Y5222700D01*
X3542298Y5222800D01*
X3542098Y5223000D01*
X3541898Y5223100D01*
X3541698Y5223300D01*
X3541498Y5223500D01*
X3541298Y5223700D01*
X3541098Y5223900D01*
X3540998Y5224100D01*
X3540798Y5224300D01*
X3540698Y5224500D01*
X3540498Y5224700D01*
X3540398Y5225000D01*
X3540298Y5225200D01*
X3540198Y5225500D01*
Y5225700D01*
X3540098Y5226000D01*
Y5226200D01*
X3539998Y5226500D01*
Y5226700D01*
Y5227000D01*
Y5253000D01*
Y5253300D01*
Y5253500D01*
X3540098Y5253800D01*
Y5254000D01*
X3540198Y5254300D01*
Y5254500D01*
X3540298Y5254800D01*
X3540398Y5255000D01*
X3540498Y5255300D01*
X3540698Y5255500D01*
X3540798Y5255700D01*
X3540998Y5255900D01*
X3541098Y5256100D01*
X3541298Y5256300D01*
X3541498Y5256500D01*
X3541698Y5256700D01*
X3541898Y5256900D01*
X3542098Y5257000D01*
X3542298Y5257200D01*
X3542498Y5257300D01*
X3542698Y5257500D01*
X3542998Y5257600D01*
X3543198Y5257700D01*
X3543498Y5257800D01*
X3543698D01*
X3543998Y5257900D01*
X3544198D01*
X3544498Y5258000D01*
X3591998D01*
X3592298Y5257900D01*
D02*
G37*
G36*
X9964200Y5222100D02*
X9964000D01*
X9963700Y5222200D01*
X9963500D01*
X9963200Y5222300D01*
X9963000Y5222400D01*
X9962700Y5222500D01*
X9962500Y5222700D01*
X9962300Y5222800D01*
X9962100Y5223000D01*
X9961900Y5223100D01*
X9961700Y5223300D01*
X9961500Y5223500D01*
X9961300Y5223700D01*
X9961100Y5223900D01*
X9961000Y5224100D01*
X9960800Y5224300D01*
X9960700Y5224500D01*
X9960500Y5224700D01*
X9960400Y5225000D01*
X9960300Y5225200D01*
X9960200Y5225500D01*
Y5225700D01*
X9960100Y5226000D01*
Y5226200D01*
X9960000Y5226500D01*
Y5226700D01*
Y5227000D01*
Y5253000D01*
Y5253300D01*
Y5253500D01*
X9960100Y5253800D01*
Y5254000D01*
X9960200Y5254300D01*
Y5254500D01*
X9960300Y5254800D01*
X9960400Y5255000D01*
X9960500Y5255300D01*
X9960700Y5255500D01*
X9960800Y5255700D01*
X9961000Y5255900D01*
X9961100Y5256100D01*
X9961300Y5256300D01*
X9961500Y5256500D01*
X9961700Y5256700D01*
X9961900Y5256900D01*
X9962100Y5257000D01*
X9962300Y5257200D01*
X9962500Y5257300D01*
X9962700Y5257500D01*
X9963000Y5257600D01*
X9963200Y5257700D01*
X9963500Y5257800D01*
X9963700D01*
X9964000Y5257900D01*
X9964200D01*
X9964500Y5258000D01*
X10012000D01*
X10012300Y5257900D01*
X10012500D01*
X10012800Y5257800D01*
X10013000D01*
X10013300Y5257700D01*
X10013500Y5257600D01*
X10013800Y5257500D01*
X10014000Y5257300D01*
X10014200Y5257200D01*
X10014400Y5257000D01*
X10014600Y5256900D01*
X10014800Y5256700D01*
X10015000Y5256500D01*
X10015200Y5256300D01*
X10015400Y5256100D01*
X10015500Y5255900D01*
X10015700Y5255700D01*
X10015800Y5255500D01*
X10016000Y5255300D01*
X10016100Y5255000D01*
X10016200Y5254800D01*
X10016300Y5254500D01*
Y5254300D01*
X10016400Y5254000D01*
Y5253800D01*
X10016500Y5253500D01*
Y5253300D01*
Y5253000D01*
Y5227000D01*
Y5226700D01*
Y5226500D01*
X10016400Y5226200D01*
Y5226000D01*
X10016300Y5225700D01*
Y5225500D01*
X10016200Y5225200D01*
X10016100Y5225000D01*
X10016000Y5224700D01*
X10015800Y5224500D01*
X10015700Y5224300D01*
X10015500Y5224100D01*
X10015400Y5223900D01*
X10015200Y5223700D01*
X10015000Y5223500D01*
X10014800Y5223300D01*
X10014600Y5223100D01*
X10014400Y5223000D01*
X10014200Y5222800D01*
X10014000Y5222700D01*
X10013800Y5222500D01*
X10013500Y5222400D01*
X10013300Y5222300D01*
X10013000Y5222200D01*
X10012800D01*
X10012500Y5222100D01*
X10012300D01*
X10012000Y5222000D01*
X9964500D01*
X9964200Y5222100D01*
D02*
G37*
G36*
X10047700D02*
X10047500D01*
X10047200Y5222200D01*
X10047000D01*
X10046700Y5222300D01*
X10046500Y5222400D01*
X10046200Y5222500D01*
X10046000Y5222700D01*
X10045800Y5222800D01*
X10045600Y5223000D01*
X10045400Y5223100D01*
X10045200Y5223300D01*
X10045000Y5223500D01*
X10044800Y5223700D01*
X10044600Y5223900D01*
X10044500Y5224100D01*
X10044300Y5224300D01*
X10044200Y5224500D01*
X10044000Y5224700D01*
X10043900Y5225000D01*
X10043800Y5225200D01*
X10043700Y5225500D01*
Y5225700D01*
X10043600Y5226000D01*
Y5226200D01*
X10043500Y5226500D01*
Y5226700D01*
Y5227000D01*
Y5253000D01*
Y5253300D01*
Y5253500D01*
X10043600Y5253800D01*
Y5254000D01*
X10043700Y5254300D01*
Y5254500D01*
X10043800Y5254800D01*
X10043900Y5255000D01*
X10044000Y5255300D01*
X10044200Y5255500D01*
X10044300Y5255700D01*
X10044500Y5255900D01*
X10044600Y5256100D01*
X10044800Y5256300D01*
X10045000Y5256500D01*
X10045200Y5256700D01*
X10045400Y5256900D01*
X10045600Y5257000D01*
X10045800Y5257200D01*
X10046000Y5257300D01*
X10046200Y5257500D01*
X10046500Y5257600D01*
X10046700Y5257700D01*
X10047000Y5257800D01*
X10047200D01*
X10047500Y5257900D01*
X10047700D01*
X10048000Y5258000D01*
X10095500D01*
X10095800Y5257900D01*
X10096000D01*
X10096300Y5257800D01*
X10096500D01*
X10096800Y5257700D01*
X10097000Y5257600D01*
X10097300Y5257500D01*
X10097500Y5257300D01*
X10097700Y5257200D01*
X10097900Y5257000D01*
X10098100Y5256900D01*
X10098300Y5256700D01*
X10098500Y5256500D01*
X10098700Y5256300D01*
X10098900Y5256100D01*
X10099000Y5255900D01*
X10099200Y5255700D01*
X10099300Y5255500D01*
X10099500Y5255300D01*
X10099600Y5255000D01*
X10099700Y5254800D01*
X10099800Y5254500D01*
Y5254300D01*
X10099900Y5254000D01*
Y5253800D01*
X10100000Y5253500D01*
Y5253300D01*
Y5253000D01*
Y5227000D01*
Y5226700D01*
Y5226500D01*
X10099900Y5226200D01*
Y5226000D01*
X10099800Y5225700D01*
Y5225500D01*
X10099700Y5225200D01*
X10099600Y5225000D01*
X10099500Y5224700D01*
X10099300Y5224500D01*
X10099200Y5224300D01*
X10099000Y5224100D01*
X10098900Y5223900D01*
X10098700Y5223700D01*
X10098500Y5223500D01*
X10098300Y5223300D01*
X10098100Y5223100D01*
X10097900Y5223000D01*
X10097700Y5222800D01*
X10097500Y5222700D01*
X10097300Y5222500D01*
X10097000Y5222400D01*
X10096800Y5222300D01*
X10096500Y5222200D01*
X10096300D01*
X10096000Y5222100D01*
X10095800D01*
X10095500Y5222000D01*
X10048000D01*
X10047700Y5222100D01*
D02*
G37*
G36*
X10020000Y5608499D02*
Y5551499D01*
Y5550504D01*
X10019239Y5548667D01*
X10017832Y5547260D01*
X10015995Y5546499D01*
X10015000D01*
D01*
X10005000D01*
X10004006D01*
X10002168Y5547260D01*
X10000761Y5548667D01*
X10000000Y5550504D01*
Y5551499D01*
D01*
Y5608499D01*
Y5609493D01*
X10000761Y5611331D01*
X10002168Y5612738D01*
X10004006Y5613499D01*
X10005000D01*
D01*
X10015000D01*
X10015995D01*
X10017832Y5612738D01*
X10019239Y5611331D01*
X10020000Y5609493D01*
Y5608499D01*
D01*
D02*
G37*
G36*
X10045000Y5546499D02*
X10044006D01*
X10042168Y5547260D01*
X10040761Y5548667D01*
X10040000Y5550504D01*
Y5551499D01*
D01*
Y5608499D01*
Y5609493D01*
X10040761Y5611331D01*
X10042168Y5612738D01*
X10044006Y5613499D01*
X10045000D01*
D01*
X10055000D01*
X10055995D01*
X10057832Y5612738D01*
X10059239Y5611331D01*
X10060000Y5609493D01*
Y5608499D01*
D01*
Y5551499D01*
Y5550504D01*
X10059239Y5548667D01*
X10057832Y5547260D01*
X10055995Y5546499D01*
X10055000D01*
D01*
X10045000D01*
D02*
G37*
G36*
X10020000Y5681499D02*
Y5680504D01*
X10019239Y5678667D01*
X10017832Y5677260D01*
X10015995Y5676499D01*
X10015000D01*
D01*
X10005000D01*
X10004006D01*
X10002168Y5677260D01*
X10000761Y5678667D01*
X10000000Y5680504D01*
Y5681499D01*
D01*
Y5738499D01*
Y5739493D01*
X10000761Y5741331D01*
X10002168Y5742738D01*
X10004006Y5743499D01*
X10005000D01*
D01*
X10015000D01*
X10015995D01*
X10017832Y5742738D01*
X10019239Y5741331D01*
X10020000Y5739493D01*
Y5738499D01*
D01*
Y5681499D01*
D02*
G37*
G36*
X10060000D02*
Y5680504D01*
X10059239Y5678667D01*
X10057832Y5677260D01*
X10055995Y5676499D01*
X10055000D01*
D01*
X10045000D01*
X10044006D01*
X10042168Y5677260D01*
X10040761Y5678667D01*
X10040000Y5680504D01*
Y5681499D01*
D01*
Y5738499D01*
Y5739493D01*
X10040761Y5741331D01*
X10042168Y5742738D01*
X10044006Y5743499D01*
X10045000D01*
D01*
X10055000D01*
X10055995D01*
X10057832Y5742738D01*
X10059239Y5741331D01*
X10060000Y5739493D01*
Y5738499D01*
D01*
Y5681499D01*
D02*
G37*
G36*
X9780361Y5990097D02*
Y5989103D01*
X9779600Y5987265D01*
X9778194Y5985858D01*
X9776356Y5985097D01*
X9775361D01*
D01*
X9738362D01*
Y5991097D01*
X9754361Y6007097D01*
X9775361Y6007097D01*
X9776356Y6007097D01*
X9778194Y6006336D01*
X9779600Y6004929D01*
X9780362Y6003092D01*
X9780361Y6002097D01*
Y6002097D01*
X9780361Y5990097D01*
D02*
G37*
G36*
Y6050097D02*
Y6051092D01*
X9779600Y6052929D01*
X9778194Y6054336D01*
X9776356Y6055097D01*
X9775361D01*
Y6055097D01*
X9738362D01*
Y6049097D01*
X9754361Y6033097D01*
X9775361D01*
X9776356Y6033097D01*
X9778194Y6033858D01*
X9779600Y6035265D01*
X9780361Y6037102D01*
Y6038097D01*
D01*
X9780361Y6050097D01*
D02*
G37*
D11*
X9459680Y5956739D02*
D03*
X9388969Y6027449D02*
D03*
X8539565Y7016871D02*
D03*
X8468854Y7087581D02*
D03*
X9841026Y6479505D02*
D03*
X9911736Y6408795D02*
D03*
X7595447Y4024497D02*
D03*
X7524736Y4095207D02*
D03*
X8836900Y6163466D02*
D03*
X8907611Y6092755D02*
D03*
X8475557Y6952863D02*
D03*
X8404847Y7023573D02*
D03*
X9645001Y6547514D02*
D03*
X9715712Y6476804D02*
D03*
X9256953Y6159466D02*
D03*
X9327663Y6088755D02*
D03*
X9777018Y6415498D02*
D03*
X9847728Y6344787D02*
D03*
X9713010Y6351490D02*
D03*
X9783720Y6280779D02*
D03*
X9452977Y6091457D02*
D03*
X9523688Y6020747D02*
D03*
X8600871Y6955565D02*
D03*
X8671581Y6884855D02*
D03*
X8664879Y7019573D02*
D03*
X8735589Y6948863D02*
D03*
X9320961Y6223474D02*
D03*
X9391671Y6152763D02*
D03*
X9192945Y6095458D02*
D03*
X9263655Y6024747D02*
D03*
X9709009Y6611522D02*
D03*
X9779720Y6540812D02*
D03*
X9580993Y6483506D02*
D03*
X9651704Y6412796D02*
D03*
X8607574Y6820846D02*
D03*
X8536863Y6891557D02*
D03*
X8799598Y7012870D02*
D03*
X8728887Y7083581D02*
D03*
X4083008Y3764464D02*
D03*
X4012298Y3835175D02*
D03*
D12*
X9303660Y7371617D02*
D03*
X9232950Y7300906D02*
D03*
X8703585Y6295482D02*
D03*
X8632875Y6224772D02*
D03*
X8575569Y6423498D02*
D03*
X8504859Y6352788D02*
D03*
X4415049Y6435500D02*
D03*
X4344339Y6364789D02*
D03*
X4692382Y3848475D02*
D03*
X4763093Y3919185D02*
D03*
X7624749Y4524559D02*
D03*
X7695459Y4595270D02*
D03*
X7535440Y4435250D02*
D03*
X7464729Y4364540D02*
D03*
X9164941Y7104882D02*
D03*
X9235652Y7175592D02*
D03*
X9512985Y6756838D02*
D03*
X9583695Y6827549D02*
D03*
X9100933Y7168890D02*
D03*
X9171644Y7239600D02*
D03*
X9516985Y7016871D02*
D03*
X9587696Y7087581D02*
D03*
X9384969Y6884854D02*
D03*
X9455679Y6955565D02*
D03*
X8639578Y6359491D02*
D03*
X8568867Y6288780D02*
D03*
X9391672Y7019573D02*
D03*
X9320961Y6948863D02*
D03*
X9452977Y7080879D02*
D03*
X9523688Y7151589D02*
D03*
X9296958Y7236898D02*
D03*
X9367668Y7307609D02*
D03*
X9448977Y6820846D02*
D03*
X9519687Y6891557D02*
D03*
X4560366Y3976491D02*
D03*
X4631076Y4047201D02*
D03*
D13*
X9547779Y6360701D02*
D03*
X9660916Y6247564D02*
D03*
X9447766Y6260689D02*
D03*
X9560903Y6147552D02*
D03*
D14*
X9287746Y7071667D02*
D03*
X9400883Y7184804D02*
D03*
D15*
X3214998Y4930000D02*
D03*
Y5550000D02*
D03*
D16*
Y5465000D02*
D03*
Y5415000D02*
D03*
Y5365000D02*
D03*
Y5315000D02*
D03*
Y5265000D02*
D03*
Y5215000D02*
D03*
Y5165000D02*
D03*
Y5115000D02*
D03*
Y5065000D02*
D03*
Y5015000D02*
D03*
X3344998Y4940000D02*
D03*
Y4990000D02*
D03*
Y5040000D02*
D03*
Y5090000D02*
D03*
Y5140000D02*
D03*
Y5190000D02*
D03*
Y5290000D02*
D03*
Y5340000D02*
D03*
Y5390000D02*
D03*
Y5440000D02*
D03*
Y5490000D02*
D03*
Y5540000D02*
D03*
D17*
X10425000Y5550000D02*
D03*
Y4930000D02*
D03*
D18*
Y5015000D02*
D03*
Y5065000D02*
D03*
Y5115000D02*
D03*
Y5165000D02*
D03*
Y5215000D02*
D03*
Y5265000D02*
D03*
Y5315000D02*
D03*
Y5365000D02*
D03*
Y5415000D02*
D03*
Y5465000D02*
D03*
X10295000Y5540000D02*
D03*
Y5490000D02*
D03*
Y5440000D02*
D03*
Y5390000D02*
D03*
Y5340000D02*
D03*
Y5290000D02*
D03*
Y5190000D02*
D03*
Y5140000D02*
D03*
Y5090000D02*
D03*
Y5040000D02*
D03*
Y4990000D02*
D03*
Y4940000D02*
D03*
D19*
X9244000Y3606002D02*
D03*
Y3671002D02*
D03*
Y3765202D02*
D03*
Y3830202D02*
D03*
Y3895202D02*
D03*
Y3960202D02*
D03*
Y4025202D02*
D03*
Y4090202D02*
D03*
Y4155202D02*
D03*
X9179000Y3862702D02*
D03*
Y3927702D02*
D03*
Y3992702D02*
D03*
Y4057702D02*
D03*
X9155000Y4174002D02*
D03*
X9090000D02*
D03*
X9025000D02*
D03*
X8960000D02*
D03*
X8895000D02*
D03*
X8830000D02*
D03*
X8765000D02*
D03*
X9057500Y4109002D02*
D03*
X8992500D02*
D03*
X8927500D02*
D03*
X8862500D02*
D03*
X8676000Y4155202D02*
D03*
Y4090202D02*
D03*
Y4025202D02*
D03*
Y3960202D02*
D03*
Y3895202D02*
D03*
Y3830202D02*
D03*
Y3765202D02*
D03*
Y3671002D02*
D03*
Y3606002D02*
D03*
X8741000Y4057702D02*
D03*
Y3992702D02*
D03*
Y3927702D02*
D03*
Y3862702D02*
D03*
X8765000Y3746502D02*
D03*
X8830000D02*
D03*
X8895000D02*
D03*
X8960000D02*
D03*
X9025000D02*
D03*
X9090000D02*
D03*
X9155000D02*
D03*
X8862500Y3811502D02*
D03*
X8927500D02*
D03*
X8992500D02*
D03*
X9057500D02*
D03*
D20*
X9012000Y3915202D02*
D03*
Y4005202D02*
D03*
X8908000D02*
D03*
Y3915202D02*
D03*
D21*
X7915139Y5470000D02*
D03*
X7965139D02*
D03*
X7915139Y5010000D02*
D03*
X7965139D02*
D03*
D22*
X7940139Y5240000D02*
D03*
D23*
X7810139Y5065000D02*
D03*
Y5115000D02*
D03*
Y5165000D02*
D03*
Y5215000D02*
D03*
Y5265000D02*
D03*
Y5315000D02*
D03*
Y5365000D02*
D03*
Y5415000D02*
D03*
X8070139D02*
D03*
Y5365000D02*
D03*
Y5315000D02*
D03*
Y5265000D02*
D03*
Y5215000D02*
D03*
Y5165000D02*
D03*
Y5115000D02*
D03*
Y5065000D02*
D03*
D24*
X4359998Y5839999D02*
D03*
X4439998D02*
D03*
X4519998D02*
D03*
X4839998D02*
D03*
X4919998D02*
D03*
X4999998D02*
D03*
X4359998Y5760000D02*
D03*
X4439998D02*
D03*
X4519998D02*
D03*
X4839998D02*
D03*
X4919998D02*
D03*
X4999998D02*
D03*
X4359998Y5680000D02*
D03*
X4439998D02*
D03*
X4519998D02*
D03*
X4839998D02*
D03*
X4919998D02*
D03*
X4999998D02*
D03*
X4359998Y5600000D02*
D03*
X4439998D02*
D03*
X4519998D02*
D03*
X4839998D02*
D03*
X4919998D02*
D03*
X4999998D02*
D03*
X4359998Y5520000D02*
D03*
X4439998D02*
D03*
X4519998D02*
D03*
X4839998D02*
D03*
X4919998D02*
D03*
X4999998D02*
D03*
X4359998Y5440000D02*
D03*
X4439998D02*
D03*
X4519998D02*
D03*
X4839998D02*
D03*
X4919998D02*
D03*
X4999998D02*
D03*
X4359998Y5360000D02*
D03*
X4439998D02*
D03*
X4519998D02*
D03*
X4839998D02*
D03*
X4919998D02*
D03*
X4999998D02*
D03*
X4359998Y5280000D02*
D03*
X4439998D02*
D03*
X4519998D02*
D03*
X4839998D02*
D03*
X4919998D02*
D03*
X4999998D02*
D03*
X4359998Y5200000D02*
D03*
X4439998D02*
D03*
X4519998D02*
D03*
X4839998D02*
D03*
X4919998D02*
D03*
X4999998D02*
D03*
X4359998Y5120000D02*
D03*
X4439998D02*
D03*
X4519998D02*
D03*
X4839998D02*
D03*
X4919998D02*
D03*
X4999998D02*
D03*
X4359998Y5040000D02*
D03*
X4439998D02*
D03*
X4519998D02*
D03*
X4839998D02*
D03*
X4919998D02*
D03*
X4999998D02*
D03*
X4359998Y4960000D02*
D03*
X4439998D02*
D03*
X4519998D02*
D03*
X4839998D02*
D03*
X4919998D02*
D03*
X4999998D02*
D03*
X4359998Y4880000D02*
D03*
X4439998D02*
D03*
X4519998D02*
D03*
X4839998D02*
D03*
X4919998D02*
D03*
X4999998D02*
D03*
X4359998Y4800000D02*
D03*
X4439998D02*
D03*
X4519998D02*
D03*
X4839998D02*
D03*
X4919998D02*
D03*
X4999998D02*
D03*
X4359998Y4720000D02*
D03*
X4439998D02*
D03*
X4519998D02*
D03*
X4839998D02*
D03*
X4919998D02*
D03*
X4999998D02*
D03*
X4359998Y4640000D02*
D03*
X4439998D02*
D03*
X4519998D02*
D03*
X4839998D02*
D03*
X4919998D02*
D03*
X4999998D02*
D03*
D25*
X9285000Y4915000D02*
D03*
Y4965000D02*
D03*
Y5015000D02*
D03*
Y5065000D02*
D03*
Y5115000D02*
D03*
Y5165000D02*
D03*
Y5215000D02*
D03*
Y5265000D02*
D03*
Y5315000D02*
D03*
Y5365000D02*
D03*
Y5415000D02*
D03*
Y5465000D02*
D03*
Y5515000D02*
D03*
Y5565000D02*
D03*
X9235000Y4915000D02*
D03*
Y4965000D02*
D03*
Y5015000D02*
D03*
Y5065000D02*
D03*
Y5115000D02*
D03*
Y5165000D02*
D03*
Y5215000D02*
D03*
Y5265000D02*
D03*
Y5315000D02*
D03*
Y5365000D02*
D03*
Y5415000D02*
D03*
Y5465000D02*
D03*
Y5515000D02*
D03*
Y5565000D02*
D03*
X9185000Y4915000D02*
D03*
Y4965000D02*
D03*
Y5015000D02*
D03*
Y5065000D02*
D03*
Y5115000D02*
D03*
Y5165000D02*
D03*
Y5215000D02*
D03*
Y5265000D02*
D03*
Y5315000D02*
D03*
Y5365000D02*
D03*
Y5415000D02*
D03*
Y5465000D02*
D03*
Y5515000D02*
D03*
Y5565000D02*
D03*
X9135000Y4915000D02*
D03*
Y4965000D02*
D03*
Y5015000D02*
D03*
Y5465000D02*
D03*
Y5515000D02*
D03*
Y5565000D02*
D03*
X9085000Y4915000D02*
D03*
Y4965000D02*
D03*
Y5015000D02*
D03*
Y5115000D02*
D03*
Y5165000D02*
D03*
Y5215000D02*
D03*
Y5265000D02*
D03*
Y5315000D02*
D03*
Y5365000D02*
D03*
Y5465000D02*
D03*
Y5515000D02*
D03*
Y5565000D02*
D03*
X9035000Y4915000D02*
D03*
Y4965000D02*
D03*
Y5015000D02*
D03*
Y5115000D02*
D03*
Y5365000D02*
D03*
Y5465000D02*
D03*
Y5515000D02*
D03*
Y5565000D02*
D03*
X8985000Y4915000D02*
D03*
Y4965000D02*
D03*
Y5015000D02*
D03*
Y5115000D02*
D03*
Y5365000D02*
D03*
Y5465000D02*
D03*
Y5515000D02*
D03*
Y5565000D02*
D03*
X8935000Y4915000D02*
D03*
Y4965000D02*
D03*
Y5015000D02*
D03*
Y5115000D02*
D03*
Y5365000D02*
D03*
Y5465000D02*
D03*
Y5515000D02*
D03*
Y5565000D02*
D03*
X8885000Y4915000D02*
D03*
Y4965000D02*
D03*
Y5015000D02*
D03*
Y5115000D02*
D03*
Y5365000D02*
D03*
Y5465000D02*
D03*
Y5515000D02*
D03*
Y5565000D02*
D03*
X8835000Y4915000D02*
D03*
Y4965000D02*
D03*
Y5015000D02*
D03*
Y5115000D02*
D03*
Y5165000D02*
D03*
Y5215000D02*
D03*
Y5265000D02*
D03*
Y5315000D02*
D03*
Y5365000D02*
D03*
Y5465000D02*
D03*
Y5515000D02*
D03*
Y5565000D02*
D03*
X8785000Y4915000D02*
D03*
Y4965000D02*
D03*
Y5015000D02*
D03*
Y5415000D02*
D03*
Y5465000D02*
D03*
Y5515000D02*
D03*
Y5565000D02*
D03*
X8735000Y4915000D02*
D03*
Y4965000D02*
D03*
Y5015000D02*
D03*
Y5065000D02*
D03*
Y5115000D02*
D03*
Y5165000D02*
D03*
Y5215000D02*
D03*
Y5265000D02*
D03*
Y5315000D02*
D03*
Y5365000D02*
D03*
Y5415000D02*
D03*
Y5465000D02*
D03*
Y5515000D02*
D03*
Y5565000D02*
D03*
X8685000Y4915000D02*
D03*
Y4965000D02*
D03*
Y5015000D02*
D03*
Y5065000D02*
D03*
Y5115000D02*
D03*
Y5165000D02*
D03*
Y5215000D02*
D03*
Y5265000D02*
D03*
Y5315000D02*
D03*
Y5365000D02*
D03*
Y5415000D02*
D03*
Y5465000D02*
D03*
Y5515000D02*
D03*
Y5565000D02*
D03*
X8635000Y4915000D02*
D03*
Y4965000D02*
D03*
Y5015000D02*
D03*
Y5065000D02*
D03*
Y5115000D02*
D03*
Y5165000D02*
D03*
Y5215000D02*
D03*
Y5265000D02*
D03*
Y5315000D02*
D03*
Y5365000D02*
D03*
Y5415000D02*
D03*
Y5465000D02*
D03*
Y5515000D02*
D03*
Y5565000D02*
D03*
X7459999Y4600000D02*
D03*
X7379999D02*
D03*
X7299999D02*
D03*
X7219999D02*
D03*
X7139999D02*
D03*
X7059999D02*
D03*
X6979999D02*
D03*
X6899999D02*
D03*
X6819999D02*
D03*
X6739999D02*
D03*
X6659999D02*
D03*
X6579999D02*
D03*
X6499999D02*
D03*
X6419999D02*
D03*
X6339999D02*
D03*
X6259999D02*
D03*
X6179999D02*
D03*
X7459999Y4680000D02*
D03*
X7379999D02*
D03*
X7299999D02*
D03*
X7219999D02*
D03*
X7139999D02*
D03*
X7059999D02*
D03*
X6979999D02*
D03*
X6899999D02*
D03*
X6819999D02*
D03*
X6739999D02*
D03*
X6659999D02*
D03*
X6579999D02*
D03*
X6499999D02*
D03*
X6419999D02*
D03*
X6339999D02*
D03*
X6259999D02*
D03*
X6179999D02*
D03*
X7459999Y4760000D02*
D03*
X7379999D02*
D03*
X7139999D02*
D03*
X7059999D02*
D03*
X6979999D02*
D03*
X6899999D02*
D03*
X6819999D02*
D03*
X6739999D02*
D03*
X6659999D02*
D03*
X6579999D02*
D03*
X6499999D02*
D03*
X6419999D02*
D03*
X6339999D02*
D03*
X6259999D02*
D03*
X6179999D02*
D03*
X7459999Y4840000D02*
D03*
X7379999D02*
D03*
X7299999D02*
D03*
X7219999D02*
D03*
X7139999D02*
D03*
X7059999D02*
D03*
X6979999D02*
D03*
X6899999D02*
D03*
X6819999D02*
D03*
X6739999D02*
D03*
X6659999D02*
D03*
X6579999D02*
D03*
X6499999D02*
D03*
X6419999D02*
D03*
X6339999D02*
D03*
X6259999D02*
D03*
X6179999D02*
D03*
X7459999Y4920000D02*
D03*
X7379999D02*
D03*
X7299999D02*
D03*
X7219999D02*
D03*
X7139999D02*
D03*
X7059999D02*
D03*
X6979999D02*
D03*
X6899999D02*
D03*
X6819999D02*
D03*
X6739999D02*
D03*
X6659999D02*
D03*
X6499999D02*
D03*
X6419999D02*
D03*
X6339999D02*
D03*
X6259999D02*
D03*
X6179999D02*
D03*
X7459999Y5000000D02*
D03*
X7379999D02*
D03*
X7299999D02*
D03*
X7219999D02*
D03*
X7139999D02*
D03*
X7059999D02*
D03*
X6979999D02*
D03*
X6899999D02*
D03*
X6819999D02*
D03*
X6739999D02*
D03*
X6659999D02*
D03*
X6579999D02*
D03*
X6499999D02*
D03*
X6419999D02*
D03*
X6339999D02*
D03*
X6259999D02*
D03*
X6179999D02*
D03*
X7459999Y5080000D02*
D03*
X7379999D02*
D03*
X7299999D02*
D03*
X7219999D02*
D03*
X7139999D02*
D03*
X7059999D02*
D03*
X6979999D02*
D03*
X6899999D02*
D03*
X6819999D02*
D03*
X6739999D02*
D03*
X6659999D02*
D03*
X6579999D02*
D03*
X6499999D02*
D03*
X6419999D02*
D03*
X6339999D02*
D03*
X6259999D02*
D03*
X6179999D02*
D03*
X7459999Y5160000D02*
D03*
X7379999D02*
D03*
X7299999D02*
D03*
X7219999D02*
D03*
X7139999D02*
D03*
X7059999D02*
D03*
X6979999D02*
D03*
X6899999D02*
D03*
X6819999D02*
D03*
X6739999D02*
D03*
X6659999D02*
D03*
X6579999D02*
D03*
X6499999D02*
D03*
X6419999D02*
D03*
X6339999D02*
D03*
X6259999D02*
D03*
X6179999D02*
D03*
X7459999Y5240000D02*
D03*
X7379999D02*
D03*
X7299999D02*
D03*
X7219999D02*
D03*
X7139999D02*
D03*
X7059999D02*
D03*
X6979999D02*
D03*
X6899999D02*
D03*
X6819999D02*
D03*
X6739999D02*
D03*
X6659999D02*
D03*
X6579999D02*
D03*
X6499999D02*
D03*
X6419999D02*
D03*
X6339999D02*
D03*
X6259999D02*
D03*
X6179999D02*
D03*
X7459999Y5320000D02*
D03*
X7379999D02*
D03*
X7299999D02*
D03*
X7219999D02*
D03*
X7139999D02*
D03*
X7059999D02*
D03*
X6979999D02*
D03*
X6899999D02*
D03*
X6819999D02*
D03*
X6739999D02*
D03*
X6659999D02*
D03*
X6579999D02*
D03*
X6499999D02*
D03*
X6419999D02*
D03*
X6339999D02*
D03*
X6259999D02*
D03*
X6179999D02*
D03*
X7459999Y5400000D02*
D03*
X7379999D02*
D03*
X7299999D02*
D03*
X7219999D02*
D03*
X7139999D02*
D03*
X7059999D02*
D03*
X6979999D02*
D03*
X6899999D02*
D03*
X6819999D02*
D03*
X6739999D02*
D03*
X6659999D02*
D03*
X6579999D02*
D03*
X6499999D02*
D03*
X6419999D02*
D03*
X6339999D02*
D03*
X6259999D02*
D03*
X6179999D02*
D03*
X7459999Y5480000D02*
D03*
X7379999D02*
D03*
X7299999D02*
D03*
X7219999D02*
D03*
X7139999D02*
D03*
X7059999D02*
D03*
X6979999D02*
D03*
X6899999D02*
D03*
X6819999D02*
D03*
X6739999D02*
D03*
X6659999D02*
D03*
X6579999D02*
D03*
X6499999D02*
D03*
X6419999D02*
D03*
X6339999D02*
D03*
X6259999D02*
D03*
X6179999D02*
D03*
X7459999Y5560000D02*
D03*
X7379999D02*
D03*
X7299999D02*
D03*
X7219999D02*
D03*
X7139999D02*
D03*
X7059999D02*
D03*
X6979999D02*
D03*
X6899999D02*
D03*
X6819999D02*
D03*
X6739999D02*
D03*
X6659999D02*
D03*
X6579999D02*
D03*
X6499999D02*
D03*
X6419999D02*
D03*
X6339999D02*
D03*
X6259999D02*
D03*
X6179999D02*
D03*
X7459999Y5640000D02*
D03*
X7379999D02*
D03*
X7299999D02*
D03*
X7219999D02*
D03*
X7139999D02*
D03*
X7059999D02*
D03*
X6979999D02*
D03*
X6899999D02*
D03*
X6819999D02*
D03*
X6739999D02*
D03*
X6659999D02*
D03*
X6579999D02*
D03*
X6499999D02*
D03*
X6419999D02*
D03*
X6339999D02*
D03*
X6259999D02*
D03*
X6179999D02*
D03*
X7459999Y5720000D02*
D03*
X7379999D02*
D03*
X7299999D02*
D03*
X7219999D02*
D03*
X7139999D02*
D03*
X7059999D02*
D03*
X6979999D02*
D03*
X6899999D02*
D03*
X6819999D02*
D03*
X6739999D02*
D03*
X6659999D02*
D03*
X6579999D02*
D03*
X6499999D02*
D03*
X6419999D02*
D03*
X6339999D02*
D03*
X6259999D02*
D03*
X6179999D02*
D03*
X7459999Y5800000D02*
D03*
X7379999D02*
D03*
X7299999D02*
D03*
X7219999D02*
D03*
X7139999D02*
D03*
X7059999D02*
D03*
X6979999D02*
D03*
X6899999D02*
D03*
X6819999D02*
D03*
X6739999D02*
D03*
X6659999D02*
D03*
X6579999D02*
D03*
X6499999D02*
D03*
X6419999D02*
D03*
X6339999D02*
D03*
X6259999D02*
D03*
X6179999D02*
D03*
X7459999Y5880000D02*
D03*
X7379999D02*
D03*
X7299999D02*
D03*
X7219999D02*
D03*
X7139999D02*
D03*
X7059999D02*
D03*
X6979999D02*
D03*
X6899999D02*
D03*
X6819999D02*
D03*
X6739999D02*
D03*
X6659999D02*
D03*
X6579999D02*
D03*
X6499999D02*
D03*
X6419999D02*
D03*
X6339999D02*
D03*
X6259999D02*
D03*
X6179999D02*
D03*
X7219999Y4760000D02*
D03*
X7299999D02*
D03*
X6579999Y4920000D02*
D03*
D27*
X4187782Y3833438D02*
D03*
X4152426Y3868794D02*
D03*
X4117071Y3904149D02*
D03*
X4081716Y3939504D02*
D03*
X4283316Y4141105D02*
D03*
X4318672Y4105750D02*
D03*
X4354027Y4070394D02*
D03*
D28*
X4389382Y4035039D02*
D03*
D29*
X3601590Y6704183D02*
D03*
X3501591D02*
D03*
D30*
X4611723Y7050232D02*
D03*
Y7150232D02*
D03*
D33*
X7800596Y4414797D02*
D03*
X7913733Y4301660D02*
D03*
X7645033Y4259234D02*
D03*
X7758169Y4146097D02*
D03*
D34*
X9980394Y5990100D02*
D03*
Y6090100D02*
D03*
X6219924Y6710190D02*
D03*
Y6810190D02*
D03*
X7660104D02*
D03*
Y6710190D02*
D03*
X6579969Y6710933D02*
D03*
Y6810933D02*
D03*
X6699984Y6710933D02*
D03*
Y6810933D02*
D03*
X6339939Y6710933D02*
D03*
Y6810933D02*
D03*
X5979894Y6710190D02*
D03*
Y6810190D02*
D03*
X6459954Y6710190D02*
D03*
Y6810190D02*
D03*
X6099909Y6710190D02*
D03*
Y6810190D02*
D03*
X7060029Y6710933D02*
D03*
Y6810933D02*
D03*
X7420074Y6810190D02*
D03*
Y6710190D02*
D03*
X7180044Y6710933D02*
D03*
Y6810933D02*
D03*
X7544090Y6810190D02*
D03*
Y6710190D02*
D03*
X6819999D02*
D03*
Y6810190D02*
D03*
X7300059Y6710933D02*
D03*
Y6810933D02*
D03*
X6940014Y6710190D02*
D03*
Y6810190D02*
D03*
X3859629Y5410015D02*
D03*
Y5310015D02*
D03*
X7620099Y5790075D02*
D03*
Y5890075D02*
D03*
X8196171Y6810190D02*
D03*
Y6710190D02*
D03*
X8276181Y6810190D02*
D03*
Y6710190D02*
D03*
X10180419Y5790075D02*
D03*
Y5890075D02*
D03*
X9800372Y5790075D02*
D03*
Y5890075D02*
D03*
X10100409Y5790075D02*
D03*
Y5890075D02*
D03*
X7700109Y5790075D02*
D03*
Y5890075D02*
D03*
X9900384Y5990100D02*
D03*
Y6090100D02*
D03*
X8240177Y5450020D02*
D03*
Y5350020D02*
D03*
X7620099Y5730055D02*
D03*
Y5630055D02*
D03*
X7700109Y5730055D02*
D03*
Y5630055D02*
D03*
X8116161Y6710190D02*
D03*
Y6810189D02*
D03*
X7780119Y6810190D02*
D03*
Y6710190D02*
D03*
X8240177Y5029980D02*
D03*
Y5129979D02*
D03*
X6880007Y4249870D02*
D03*
Y4149870D02*
D03*
X7000022Y4249870D02*
D03*
Y4149870D02*
D03*
X9720362Y5790075D02*
D03*
Y5890074D02*
D03*
X9380319Y4389900D02*
D03*
Y4489899D02*
D03*
X9500334Y4489900D02*
D03*
Y4389900D02*
D03*
X9640352Y5890075D02*
D03*
Y5790075D02*
D03*
D35*
X8005144Y6810190D02*
D03*
Y6760190D02*
D03*
X7955144Y6810190D02*
D03*
Y6760190D02*
D03*
Y6710190D02*
D03*
X8005144D02*
D03*
D36*
X8440196Y6820190D02*
D03*
Y6780190D02*
D03*
X8400197D02*
D03*
X8440196Y6740190D02*
D03*
X8400197D02*
D03*
Y6820190D02*
D03*
X8360197Y6740190D02*
D03*
Y6780190D02*
D03*
Y6700190D02*
D03*
X8440196D02*
D03*
X8400197D02*
D03*
X8360197Y6820190D02*
D03*
D37*
X3069524Y5960090D02*
D03*
X2969524D02*
D03*
X3789627Y5660052D02*
D03*
X3889626D02*
D03*
X3789627Y5780067D02*
D03*
X3889626D02*
D03*
X3789627Y5540037D02*
D03*
X3889626D02*
D03*
X4089651Y5420022D02*
D03*
X3989652D02*
D03*
Y5300007D02*
D03*
X4089651D02*
D03*
Y5540037D02*
D03*
X3989652D02*
D03*
X8030144Y6620172D02*
D03*
X7930144D02*
D03*
X9770362Y5600045D02*
D03*
X9670362D02*
D03*
X10570474Y5880080D02*
D03*
X10670474D02*
D03*
X3349559Y5840075D02*
D03*
X3249559D02*
D03*
X3069524D02*
D03*
X2969524D02*
D03*
X4089652Y5660052D02*
D03*
X3989652D02*
D03*
X4089652Y5179992D02*
D03*
X3989652D02*
D03*
X4089652Y5900082D02*
D03*
X3989652D02*
D03*
X4089652Y4819947D02*
D03*
X3989652D02*
D03*
X4089652Y4699932D02*
D03*
X3989652D02*
D03*
X4089652Y4939962D02*
D03*
X3989652D02*
D03*
X4089652Y5059977D02*
D03*
X3989652D02*
D03*
X4089652Y4579917D02*
D03*
X3989652D02*
D03*
X4089652Y5780067D02*
D03*
X3989652D02*
D03*
X3653597Y6872204D02*
D03*
X3553597D02*
D03*
X3653597Y6792194D02*
D03*
X3553597D02*
D03*
D38*
X9768998Y5302500D02*
D03*
X9728998D02*
D03*
X9688998D02*
D03*
X9648998D02*
D03*
Y5177500D02*
D03*
X9688998D02*
D03*
X9728998D02*
D03*
X9768998D02*
D03*
D40*
X3568248Y5140000D02*
D03*
Y5190000D02*
D03*
Y5290000D02*
D03*
Y5340000D02*
D03*
X3651748D02*
D03*
Y5290000D02*
D03*
Y5190000D02*
D03*
Y5140000D02*
D03*
X9988250D02*
D03*
Y5190000D02*
D03*
Y5290000D02*
D03*
Y5340000D02*
D03*
X10071750D02*
D03*
Y5290000D02*
D03*
Y5190000D02*
D03*
Y5140000D02*
D03*
D43*
X9005608Y6890164D02*
D03*
X9033893Y6861879D02*
D03*
X9062177Y6833595D02*
D03*
X9090461Y6805311D02*
D03*
X9118745Y6777027D02*
D03*
X9147029Y6748742D02*
D03*
X9175314Y6720458D02*
D03*
X9203598Y6692174D02*
D03*
X9231882Y6663890D02*
D03*
X9260167Y6635605D02*
D03*
X8914391Y6289830D02*
D03*
X8886107Y6318115D02*
D03*
X8857823Y6346399D02*
D03*
X8829539Y6374683D02*
D03*
X8801254Y6402967D02*
D03*
X8772970Y6431252D02*
D03*
X8744686Y6459536D02*
D03*
X8716402Y6487820D02*
D03*
X8688117Y6516104D02*
D03*
X8659833Y6544388D02*
D03*
D44*
Y6635605D02*
D03*
X8688117Y6663890D02*
D03*
X8716402Y6692174D02*
D03*
X8744686Y6720458D02*
D03*
X8772970Y6748742D02*
D03*
X8801254Y6777027D02*
D03*
X8829539Y6805311D02*
D03*
X8857823Y6833595D02*
D03*
X8886107Y6861879D02*
D03*
X8914391Y6890164D02*
D03*
X9260167Y6544388D02*
D03*
X9231882Y6516104D02*
D03*
X9203598Y6487820D02*
D03*
X9175314Y6459536D02*
D03*
X9147029Y6431252D02*
D03*
X9118745Y6402967D02*
D03*
X9090461Y6374683D02*
D03*
X9062177Y6346399D02*
D03*
X9033893Y6318115D02*
D03*
X9005608Y6289830D02*
D03*
D45*
X4309148Y3796535D02*
D03*
X4337433Y3824819D02*
D03*
X4365717Y3853103D02*
D03*
X4394001Y3881387D02*
D03*
X4422286Y3909672D02*
D03*
X4626008Y3705950D02*
D03*
X4597723Y3677665D02*
D03*
X4569439Y3649381D02*
D03*
X4541155Y3621097D02*
D03*
X4512871Y3592812D02*
D03*
D46*
Y3909672D02*
D03*
X4541155Y3881387D02*
D03*
X4569439Y3853103D02*
D03*
X4597723Y3824819D02*
D03*
X4626008Y3796535D02*
D03*
X4422286Y3592812D02*
D03*
X4394001Y3621097D02*
D03*
X4365717Y3649381D02*
D03*
X4337433Y3677665D02*
D03*
D47*
X4309148Y3705950D02*
D03*
D49*
X4479844Y6683686D02*
D03*
D50*
X4479840Y6825111D02*
D03*
D51*
X4373776Y6899356D02*
D03*
D52*
X3682580Y6105627D02*
D03*
D53*
X3590655Y6356654D02*
D03*
X3668435Y6434434D02*
D03*
X3746218Y6512217D02*
D03*
X3823998Y6589997D02*
D03*
X3901781Y6667780D02*
D03*
X3979565Y6745564D02*
D03*
X4057344Y6823343D02*
D03*
X4135128Y6901127D02*
D03*
D54*
X3725175Y7160728D02*
D03*
X3689821Y7125375D02*
D03*
X3654464Y7090018D02*
D03*
X3619111Y7054664D02*
D03*
X3699721Y7009407D02*
D03*
X3735078Y7044764D02*
D03*
X3770432Y7080118D02*
D03*
D55*
X7065015Y4403895D02*
D03*
X6815013D02*
D03*
D56*
X8107644Y6932211D02*
D03*
X7852634D02*
D03*
D57*
X8016149D02*
D03*
X7944129D02*
D03*
D58*
X9955002Y5584996D02*
D03*
Y5624996D02*
D03*
Y5664996D02*
D03*
Y5704996D02*
D03*
X10104999D02*
D03*
Y5664996D02*
D03*
Y5624996D02*
D03*
Y5584996D02*
D03*
X3534999Y5585000D02*
D03*
Y5625000D02*
D03*
Y5665000D02*
D03*
Y5705000D02*
D03*
X3684996D02*
D03*
Y5665000D02*
D03*
Y5625000D02*
D03*
Y5585000D02*
D03*
D99*
X4235549Y3987271D02*
D03*
D100*
X9720362Y6020097D02*
D03*
D101*
X9678998Y5239999D02*
D03*
X9738997Y5240000D02*
D03*
D102*
X4467578Y3751242D02*
D03*
D103*
X8960000Y6589997D02*
D03*
%TF.MD5,7aaca99d5b1fdfa041f27b42e2c02a25*%
M02*
