%TF.GenerationSoftware,Altium Limited,Altium Designer,23.1.1 (15)*%
G04 Layer_Color=0*
%FSLAX45Y45*%
%MOMM*%
%TF.SameCoordinates,3FBC52AE-4862-4018-B763-16E4B67C7164*%
%TF.FilePolarity,Positive*%
%TF.FileFunction,Plated,1,4,PTH,Drill*%
%TF.Part,Single*%
G01*
G75*
%TA.AperFunction,ComponentDrill*%
%ADD105O,2.10000X0.60000*%
%ADD106O,1.60000X0.60000*%
%TA.AperFunction,ViaDrill,NotFilled*%
%ADD107C,0.20320*%
D105*
X2767998Y4808000D02*
D03*
Y5672000D02*
D03*
X10872001D02*
D03*
Y4808000D02*
D03*
D106*
X3303998D02*
D03*
Y5672000D02*
D03*
X10336000D02*
D03*
Y4808000D02*
D03*
D107*
X10972800Y7559040D02*
D03*
Y7071360D02*
D03*
Y6583680D02*
D03*
Y6096000D02*
D03*
Y5120640D02*
D03*
Y4632960D02*
D03*
Y4145280D02*
D03*
Y3657600D02*
D03*
Y3169920D02*
D03*
Y2682240D02*
D03*
X10850880Y7802880D02*
D03*
X10728960Y7559040D02*
D03*
X10850880Y7315200D02*
D03*
X10728960Y7071360D02*
D03*
X10850880Y6827520D02*
D03*
Y6339840D02*
D03*
X10728960Y6096000D02*
D03*
X10850880Y5852160D02*
D03*
Y5364480D02*
D03*
Y4389120D02*
D03*
Y3901440D02*
D03*
X10728960Y3657600D02*
D03*
X10850880Y3413760D02*
D03*
X10728960Y3169920D02*
D03*
X10850880Y2926080D02*
D03*
X10728960Y2682240D02*
D03*
X10607040Y7802880D02*
D03*
X10485120Y7559040D02*
D03*
X10607040Y7315200D02*
D03*
X10485120Y7071360D02*
D03*
X10607040Y6827520D02*
D03*
X10485120Y6583680D02*
D03*
Y6096000D02*
D03*
Y4632960D02*
D03*
X10607040Y3901440D02*
D03*
X10485120Y3657600D02*
D03*
X10607040Y3413760D02*
D03*
X10485120Y3169920D02*
D03*
X10607040Y2926080D02*
D03*
X10485120Y2682240D02*
D03*
X10363200Y7802880D02*
D03*
X10241280Y7559040D02*
D03*
X10363200Y7315200D02*
D03*
Y6827520D02*
D03*
Y6339840D02*
D03*
X10241280Y6096000D02*
D03*
X10363200Y5852160D02*
D03*
X10241280Y4632960D02*
D03*
X10363200Y4389120D02*
D03*
X10241280Y4145280D02*
D03*
X10363200Y3413760D02*
D03*
X10241280Y3169920D02*
D03*
X10363200Y2926080D02*
D03*
X10241280Y2682240D02*
D03*
X10119360Y7802880D02*
D03*
X9997440Y7559040D02*
D03*
X10119360Y7315200D02*
D03*
X9997440Y7071360D02*
D03*
Y6583680D02*
D03*
X10119360Y6339840D02*
D03*
Y4876800D02*
D03*
X9997440Y4632960D02*
D03*
X10119360Y4389120D02*
D03*
X9997440Y4145280D02*
D03*
X10119360Y3901440D02*
D03*
X9997440Y3657600D02*
D03*
X10119360Y3413760D02*
D03*
X9997440Y3169920D02*
D03*
X10119360Y2926080D02*
D03*
X9997440Y2682240D02*
D03*
X9875520Y7802880D02*
D03*
Y7315200D02*
D03*
Y6827520D02*
D03*
X9753600Y4632960D02*
D03*
Y4145280D02*
D03*
Y3657600D02*
D03*
X9875520Y2926080D02*
D03*
X9753600Y2682240D02*
D03*
X9631680Y7802880D02*
D03*
X9509760Y5608320D02*
D03*
X9631680Y4876800D02*
D03*
Y4389120D02*
D03*
X9509760Y4145280D02*
D03*
X9631680Y3901440D02*
D03*
X9509760Y3657600D02*
D03*
X9631680Y3413760D02*
D03*
Y2926080D02*
D03*
X9509760Y2682240D02*
D03*
X9387840Y7802880D02*
D03*
Y5852160D02*
D03*
Y3901440D02*
D03*
Y2926080D02*
D03*
X9265920Y2682240D02*
D03*
X9144000Y7802880D02*
D03*
Y5852160D02*
D03*
Y4389120D02*
D03*
Y3413760D02*
D03*
Y2926080D02*
D03*
X9022080Y2682240D02*
D03*
X8900160Y7802880D02*
D03*
Y7315200D02*
D03*
Y5852160D02*
D03*
Y4389120D02*
D03*
Y3413760D02*
D03*
Y2926080D02*
D03*
X8778240Y2682240D02*
D03*
X8656320Y7802880D02*
D03*
Y7315200D02*
D03*
Y3413760D02*
D03*
Y2926080D02*
D03*
X8534400Y2682240D02*
D03*
X8412480Y7802880D02*
D03*
X8290560Y7071360D02*
D03*
X8412480Y4876800D02*
D03*
X8290560Y3657600D02*
D03*
X8412480Y3413760D02*
D03*
Y2926080D02*
D03*
X8290560Y2682240D02*
D03*
X8168640Y7802880D02*
D03*
X8046720Y7559040D02*
D03*
Y7071360D02*
D03*
X8168640Y3901440D02*
D03*
X8046720Y3657600D02*
D03*
X8168640Y3413760D02*
D03*
Y2926080D02*
D03*
X8046720Y2682240D02*
D03*
X7924800Y7802880D02*
D03*
X7802880Y7559040D02*
D03*
X7924800Y7315200D02*
D03*
Y3901440D02*
D03*
X7802880Y3657600D02*
D03*
X7924800Y3413760D02*
D03*
Y2926080D02*
D03*
X7802880Y2682240D02*
D03*
X7680960Y7802880D02*
D03*
X7559040Y7559040D02*
D03*
X7680960Y7315200D02*
D03*
Y3901440D02*
D03*
Y3413760D02*
D03*
Y2926080D02*
D03*
X7559040Y2682240D02*
D03*
X7437120Y7802880D02*
D03*
X7315200Y7559040D02*
D03*
X7437120Y7315200D02*
D03*
Y3901440D02*
D03*
X7315200Y3657600D02*
D03*
X7437120Y3413760D02*
D03*
Y2926080D02*
D03*
X7315200Y2682240D02*
D03*
X7193280Y7802880D02*
D03*
X7071360Y7559040D02*
D03*
X7193280Y7315200D02*
D03*
X7071360Y4145280D02*
D03*
Y3657600D02*
D03*
X7193280Y3413760D02*
D03*
Y2926080D02*
D03*
X7071360Y2682240D02*
D03*
X6949440Y7802880D02*
D03*
X6827520Y7559040D02*
D03*
X6949440Y7315200D02*
D03*
Y4389120D02*
D03*
Y3901440D02*
D03*
Y3413760D02*
D03*
Y2926080D02*
D03*
X6827520Y2682240D02*
D03*
X6705600Y7802880D02*
D03*
X6583680Y7559040D02*
D03*
X6705600Y7315200D02*
D03*
X6583680Y4145280D02*
D03*
X6705600Y3901440D02*
D03*
X6583680Y3657600D02*
D03*
X6705600Y2926080D02*
D03*
X6583680Y2682240D02*
D03*
X6461760Y7802880D02*
D03*
X6339840Y7559040D02*
D03*
X6461760Y7315200D02*
D03*
Y3901440D02*
D03*
X6339840Y3657600D02*
D03*
X6461760Y3413760D02*
D03*
Y2926080D02*
D03*
X6339840Y2682240D02*
D03*
X6217920Y7802880D02*
D03*
X6096000Y7559040D02*
D03*
X6217920Y7315200D02*
D03*
Y3901440D02*
D03*
X6096000Y3657600D02*
D03*
X6217920Y3413760D02*
D03*
Y2926080D02*
D03*
X6096000Y2682240D02*
D03*
X5974080Y7802880D02*
D03*
X5852160Y7559040D02*
D03*
X5974080Y7315200D02*
D03*
X5852160Y7071360D02*
D03*
X5974080Y3901440D02*
D03*
X5852160Y3657600D02*
D03*
X5974080Y3413760D02*
D03*
Y2926080D02*
D03*
X5852160Y2682240D02*
D03*
X5730240Y7802880D02*
D03*
X5608320Y7559040D02*
D03*
X5730240Y7315200D02*
D03*
X5608320Y7071360D02*
D03*
X5730240Y6827520D02*
D03*
Y3901440D02*
D03*
X5608320Y3657600D02*
D03*
X5730240Y3413760D02*
D03*
Y2926080D02*
D03*
X5608320Y2682240D02*
D03*
X5486400Y7802880D02*
D03*
X5364480Y7559040D02*
D03*
X5486400Y7315200D02*
D03*
X5364480Y7071360D02*
D03*
X5486400Y6827520D02*
D03*
Y3901440D02*
D03*
X5364480Y3657600D02*
D03*
X5486400Y3413760D02*
D03*
Y2926080D02*
D03*
X5364480Y2682240D02*
D03*
X5242560Y7802880D02*
D03*
X5120640Y7559040D02*
D03*
X5242560Y7315200D02*
D03*
Y6827520D02*
D03*
Y3901440D02*
D03*
X5120640Y3657600D02*
D03*
X5242560Y3413760D02*
D03*
Y2926080D02*
D03*
X5120640Y2682240D02*
D03*
X4998720Y7802880D02*
D03*
X4876800Y7559040D02*
D03*
X4998720Y7315200D02*
D03*
X4876800Y7071360D02*
D03*
X4998720Y6827520D02*
D03*
Y3901440D02*
D03*
X4876800Y3657600D02*
D03*
X4998720Y3413760D02*
D03*
Y2926080D02*
D03*
X4876800Y2682240D02*
D03*
X4754880Y7802880D02*
D03*
X4632960Y7559040D02*
D03*
Y4145280D02*
D03*
X4754880Y3413760D02*
D03*
X4632960Y3169920D02*
D03*
X4754880Y2926080D02*
D03*
X4632960Y2682240D02*
D03*
X4511040Y7802880D02*
D03*
X4389120Y7559040D02*
D03*
Y3169920D02*
D03*
X4511040Y2926080D02*
D03*
X4389120Y2682240D02*
D03*
X4267200Y7802880D02*
D03*
X4145280Y7559040D02*
D03*
Y6096000D02*
D03*
X4267200Y5852160D02*
D03*
Y4876800D02*
D03*
Y4389120D02*
D03*
X4145280Y4145280D02*
D03*
Y3169920D02*
D03*
X4267200Y2926080D02*
D03*
X4145280Y2682240D02*
D03*
X4023360Y7802880D02*
D03*
X3901440Y7559040D02*
D03*
Y6096000D02*
D03*
Y3657600D02*
D03*
X4023360Y3413760D02*
D03*
X3901440Y3169920D02*
D03*
X4023360Y2926080D02*
D03*
X3901440Y2682240D02*
D03*
X3779520Y7802880D02*
D03*
X3657600Y7559040D02*
D03*
X3779520Y5852160D02*
D03*
X3657600Y4632960D02*
D03*
Y4145280D02*
D03*
Y3657600D02*
D03*
X3779520Y3413760D02*
D03*
X3657600Y3169920D02*
D03*
X3779520Y2926080D02*
D03*
X3657600Y2682240D02*
D03*
X3535680Y7802880D02*
D03*
X3413760Y7559040D02*
D03*
Y7071360D02*
D03*
Y6583680D02*
D03*
Y6096000D02*
D03*
X3535680Y5852160D02*
D03*
Y4876800D02*
D03*
X3413760Y4632960D02*
D03*
X3535680Y4389120D02*
D03*
X3413760Y4145280D02*
D03*
X3535680Y3901440D02*
D03*
X3413760Y3657600D02*
D03*
X3535680Y3413760D02*
D03*
X3413760Y3169920D02*
D03*
X3535680Y2926080D02*
D03*
X3413760Y2682240D02*
D03*
X3291840Y7802880D02*
D03*
X3169920Y7559040D02*
D03*
X3291840Y7315200D02*
D03*
X3169920Y7071360D02*
D03*
X3291840Y6827520D02*
D03*
X3169920Y6583680D02*
D03*
X3291840Y6339840D02*
D03*
X3169920Y6096000D02*
D03*
Y4632960D02*
D03*
X3291840Y4389120D02*
D03*
X3169920Y4145280D02*
D03*
X3291840Y3901440D02*
D03*
X3169920Y3657600D02*
D03*
X3291840Y3413760D02*
D03*
X3169920Y3169920D02*
D03*
X3291840Y2926080D02*
D03*
X3169920Y2682240D02*
D03*
X3048000Y7802880D02*
D03*
X2926080Y7559040D02*
D03*
X3048000Y7315200D02*
D03*
X2926080Y7071360D02*
D03*
Y6583680D02*
D03*
Y6096000D02*
D03*
Y5608320D02*
D03*
Y5120640D02*
D03*
X3048000Y4876800D02*
D03*
X2926080Y4632960D02*
D03*
X3048000Y4389120D02*
D03*
X2926080Y4145280D02*
D03*
X3048000Y3901440D02*
D03*
X2926080Y3657600D02*
D03*
X3048000Y3413760D02*
D03*
X2926080Y3169920D02*
D03*
X3048000Y2926080D02*
D03*
X2926080Y2682240D02*
D03*
X2804160Y7802880D02*
D03*
X2682240Y7559040D02*
D03*
X2804160Y7315200D02*
D03*
X2682240Y7071360D02*
D03*
X2804160Y6827520D02*
D03*
X2682240Y6583680D02*
D03*
X2804160Y6339840D02*
D03*
X2682240Y6096000D02*
D03*
X2804160Y5852160D02*
D03*
Y5364480D02*
D03*
X2682240Y5120640D02*
D03*
Y4632960D02*
D03*
X2804160Y4389120D02*
D03*
X2682240Y4145280D02*
D03*
X2804160Y3901440D02*
D03*
X2682240Y3657600D02*
D03*
X2804160Y3413760D02*
D03*
X2682240Y3169920D02*
D03*
X2804160Y2926080D02*
D03*
X2682240Y2682240D02*
D03*
X10660479Y6296132D02*
D03*
X9252303Y6396144D02*
D03*
X9292308Y6444150D02*
D03*
X9320312Y6496157D02*
D03*
X9684357Y6312134D02*
D03*
X9161747Y6303588D02*
D03*
X9150455Y6254291D02*
D03*
X9224300Y6188118D02*
D03*
X9420324Y6060102D02*
D03*
X9404322Y6576167D02*
D03*
X9808373Y6508158D02*
D03*
X9964392Y6328136D02*
D03*
X3563592Y6672179D02*
D03*
X9144290Y6948213D02*
D03*
X9096284Y7056227D02*
D03*
X9356316Y7140237D02*
D03*
X4799747Y3963840D02*
D03*
X4667730Y4091856D02*
D03*
X3967643Y3875829D02*
D03*
X4131663Y3715809D02*
D03*
X9336314Y7340262D02*
D03*
X9556341Y7120235D02*
D03*
X9200297Y7204245D02*
D03*
X4543715Y3339762D02*
D03*
X10720487Y5880080D02*
D03*
X4011648Y3943838D02*
D03*
X4031651Y3995844D02*
D03*
X4535714Y3419772D02*
D03*
X4527713Y3499782D02*
D03*
X4211673Y4011846D02*
D03*
X4259679Y3963840D02*
D03*
X4531713Y3751814D02*
D03*
X4399697Y3747813D02*
D03*
X4347690Y4183868D02*
D03*
X4599722Y3951839D02*
D03*
X9576344Y6884205D02*
D03*
X9264305Y7268253D02*
D03*
X9092283Y7000220D02*
D03*
X9012273Y6168116D02*
D03*
X7940139Y4039850D02*
D03*
X8100159D02*
D03*
X9308310Y6640175D02*
D03*
X6860449Y5360015D02*
D03*
X6960017Y4999970D02*
D03*
X8436201Y6484155D02*
D03*
X8472206Y6320135D02*
D03*
X8400197Y3899832D02*
D03*
X8604222Y3695807D02*
D03*
X10028400Y5240000D02*
D03*
X9880382Y5584996D02*
D03*
X3687608Y5552039D02*
D03*
X8488208Y6728186D02*
D03*
X8236176Y6872204D02*
D03*
X7852128Y6620172D02*
D03*
X8004147Y6852201D02*
D03*
X8332320Y6868203D02*
D03*
X8496340Y6844200D02*
D03*
X6860004Y5199995D02*
D03*
X6619961Y4959330D02*
D03*
X6539964Y5039975D02*
D03*
X6619974Y5119985D02*
D03*
X6539964Y4955964D02*
D03*
X9548340Y6984218D02*
D03*
X6940014Y5119985D02*
D03*
X7340064Y5600045D02*
D03*
X7516214Y5802823D02*
D03*
X8108160Y6624173D02*
D03*
X7060029Y5199995D02*
D03*
X7660104Y5920085D02*
D03*
X6860007Y5280005D02*
D03*
X7260054Y5520035D02*
D03*
Y5440025D02*
D03*
X7340064Y5840075D02*
D03*
X8660229Y6440150D02*
D03*
X8700234Y6380142D02*
D03*
X6040113Y7084230D02*
D03*
X9980394Y5880080D02*
D03*
X9900384D02*
D03*
X10140414Y5920085D02*
D03*
X9680357Y5760065D02*
D03*
X6379944Y5600045D02*
D03*
X6699984D02*
D03*
X8240177Y4959965D02*
D03*
X6779994D02*
D03*
X6379944Y4799945D02*
D03*
Y4723935D02*
D03*
X6944015Y4639925D02*
D03*
X7260054D02*
D03*
Y4799945D02*
D03*
X7180044Y4879955D02*
D03*
X4319687Y5720060D02*
D03*
Y5640050D02*
D03*
Y5560040D02*
D03*
X3539589Y5480030D02*
D03*
X3679607D02*
D03*
X3559592Y5764065D02*
D03*
X3639602D02*
D03*
X3739614Y5720060D02*
D03*
X9840377Y5500032D02*
D03*
X9760367D02*
D03*
X10140414Y5560040D02*
D03*
X9880382Y5660052D02*
D03*
X9900384Y5199995D02*
D03*
X9860379Y5159990D02*
D03*
X9780369Y5360015D02*
D03*
X9820374Y4999970D02*
D03*
X10360416Y5040252D02*
D03*
X9780369Y5119985D02*
D03*
X9900384Y5440025D02*
D03*
X9600347D02*
D03*
X7440077Y4199870D02*
D03*
X7240052D02*
D03*
Y4319885D02*
D03*
X7500084Y4555914D02*
D03*
Y4719935D02*
D03*
X7540089Y4759940D02*
D03*
X7180044Y5039975D02*
D03*
X7580094Y4679930D02*
D03*
X10572468Y4519910D02*
D03*
X10356441D02*
D03*
X3499584Y5280005D02*
D03*
X3499594Y5340002D02*
D03*
X9940389Y6120110D02*
D03*
X8600222Y6192119D02*
D03*
X9360317Y5640050D02*
D03*
X9380319Y4579917D02*
D03*
X8120162Y4479905D02*
D03*
X9500334Y4579917D02*
D03*
X9360317Y5039975D02*
D03*
X4611723Y7200245D02*
D03*
X8620468Y6479911D02*
D03*
X7100034Y4959965D02*
D03*
X7180044Y4799945D02*
D03*
X6779994Y4639925D02*
D03*
X7260054Y4719935D02*
D03*
X7602097Y6810190D02*
D03*
X7482082D02*
D03*
X6759992Y6810561D02*
D03*
X7000022Y6812196D02*
D03*
X6519962D02*
D03*
X6279932D02*
D03*
X7240052D02*
D03*
X6039902Y6810190D02*
D03*
X2919512Y5840075D02*
D03*
X9760367Y5920085D02*
D03*
X9680357D02*
D03*
X9440327Y5039975D02*
D03*
X8848253Y5416022D02*
D03*
X8912261D02*
D03*
X9040277Y5640050D02*
D03*
Y5416022D02*
D03*
X7120037Y6620172D02*
D03*
X5979894D02*
D03*
X6819999D02*
D03*
X7300059D02*
D03*
X6339939D02*
D03*
X7660104D02*
D03*
X6699984D02*
D03*
X6940014D02*
D03*
X7180044D02*
D03*
X6099909D02*
D03*
X7060029D02*
D03*
X6579969D02*
D03*
X7540089D02*
D03*
X7420074D02*
D03*
X6219924D02*
D03*
X6504203Y6484399D02*
D03*
X6659979Y6280130D02*
D03*
X9380319Y4339887D02*
D03*
X10160417Y5704058D02*
D03*
X9520337Y5039975D02*
D03*
X8160167Y5360015D02*
D03*
Y5440025D02*
D03*
Y5520035D02*
D03*
Y5039975D02*
D03*
Y5119985D02*
D03*
Y4959965D02*
D03*
X7980144Y4679930D02*
D03*
X7260054Y5119985D02*
D03*
X7180044D02*
D03*
X7800122Y4979967D02*
D03*
X7860129D02*
D03*
X7940139Y5560040D02*
D03*
X8140164Y4679930D02*
D03*
X8060154D02*
D03*
X7660104Y5039975D02*
D03*
X7620099Y5079980D02*
D03*
X8100159Y4199870D02*
D03*
X7240052Y4439900D02*
D03*
X8634999Y5464998D02*
D03*
X8834999D02*
D03*
X8580219Y5019972D02*
D03*
Y5079980D02*
D03*
X7295570Y3984983D02*
D03*
X7195353Y4015154D02*
D03*
X7260547Y3949960D02*
D03*
X7230376Y4050177D02*
D03*
X4439702Y4559915D02*
D03*
X4595805Y4551997D02*
D03*
X4479707Y5321280D02*
D03*
X4399697D02*
D03*
X4559717Y4839950D02*
D03*
X5079757Y5040000D02*
D03*
X5079782Y5119985D02*
D03*
X3919637Y5400020D02*
D03*
X4019649Y5360015D02*
D03*
X4179669Y5320010D02*
D03*
X3919637D02*
D03*
X4179669Y5400020D02*
D03*
X4299684Y5320010D02*
D03*
Y5400020D02*
D03*
X3859629Y5720060D02*
D03*
X4019649Y4759940D02*
D03*
Y4639925D02*
D03*
Y4879955D02*
D03*
Y4999970D02*
D03*
Y5119985D02*
D03*
Y5240000D02*
D03*
Y5480030D02*
D03*
Y5600045D02*
D03*
X4159667Y4579917D02*
D03*
Y4699932D02*
D03*
Y4819947D02*
D03*
Y4939962D02*
D03*
Y5059977D02*
D03*
Y5660052D02*
D03*
Y5780067D02*
D03*
Y5179992D02*
D03*
X4019649Y5720060D02*
D03*
X3459579Y5580042D02*
D03*
X9500334Y4339887D02*
D03*
X8880257Y4059852D02*
D03*
X9040277D02*
D03*
X9080282Y3939837D02*
D03*
X9160292Y3819822D02*
D03*
X9040277Y3699807D02*
D03*
X8960267D02*
D03*
Y3619797D02*
D03*
X8880257D02*
D03*
X8800247D02*
D03*
X9120287Y4099857D02*
D03*
X8960267Y4019847D02*
D03*
X8800247Y4099857D02*
D03*
Y4019847D02*
D03*
X8920262Y4219872D02*
D03*
X8840252D02*
D03*
X8760242D02*
D03*
X8800247Y3859827D02*
D03*
X8880257D02*
D03*
X9120287Y3619797D02*
D03*
X8960267Y3859827D02*
D03*
X9040277D02*
D03*
X9720362Y5360015D02*
D03*
X6860004Y4719935D02*
D03*
X6699984Y4799945D02*
D03*
X6619974D02*
D03*
X6543965D02*
D03*
X10500459Y5420022D02*
D03*
X10360442Y5440025D02*
D03*
Y5520035D02*
D03*
X10500459Y5059977D02*
D03*
X3159542Y5215235D02*
D03*
X10500459Y4999970D02*
D03*
X10360442Y4959965D02*
D03*
X10500459Y5480030D02*
D03*
X3279557Y5163990D02*
D03*
X3279210Y5316009D02*
D03*
X10360442Y5163990D02*
D03*
Y5316009D02*
D03*
Y5215237D02*
D03*
Y5264767D02*
D03*
X10140414Y5280005D02*
D03*
Y5340012D02*
D03*
X10480738Y5215235D02*
D03*
Y5264765D02*
D03*
X8784245Y5416022D02*
D03*
X8976269D02*
D03*
X9600347Y5119985D02*
D03*
X9660354D02*
D03*
Y5360015D02*
D03*
X9600347D02*
D03*
X9116286Y5063978D02*
D03*
X9020274Y5067978D02*
D03*
X8920262Y5063978D02*
D03*
X8800247D02*
D03*
X8860254D02*
D03*
X8160167Y5280005D02*
D03*
X9720362Y5119985D02*
D03*
X3279557Y5264767D02*
D03*
X3159542Y5264765D02*
D03*
X3279557Y5215237D02*
D03*
X8840252Y4859952D02*
D03*
X8720237D02*
D03*
X7540089Y4999970D02*
D03*
X7700109Y5320010D02*
D03*
X7340064Y5119985D02*
D03*
X7540089Y5320010D02*
D03*
Y5159990D02*
D03*
Y5079980D02*
D03*
X6499959Y4519910D02*
D03*
X6941265Y4719467D02*
D03*
X6944015Y4879955D02*
D03*
X7020024Y4799945D02*
D03*
X7100034Y5039975D02*
D03*
X6619974Y4879955D02*
D03*
X6379944Y5039975D02*
D03*
Y5199995D02*
D03*
Y5119985D02*
D03*
X6299934Y5039975D02*
D03*
X6459954D02*
D03*
Y5119985D02*
D03*
X4479707Y5640050D02*
D03*
X6219924Y4879955D02*
D03*
X6299934Y4959965D02*
D03*
X6139914Y4879955D02*
D03*
X4579719Y5348013D02*
D03*
Y5292006D02*
D03*
X4399697Y5159990D02*
D03*
X5079782Y5760065D02*
D03*
X4879757Y5800070D02*
D03*
Y5880080D02*
D03*
X4959767D02*
D03*
X5039777D02*
D03*
X4879757Y5320010D02*
D03*
X4959767D02*
D03*
X4799747D02*
D03*
X6459954Y4799945D02*
D03*
X6299934Y4639925D02*
D03*
X5039777Y5240000D02*
D03*
X6379944Y4879955D02*
D03*
X4479707Y5159990D02*
D03*
X4559717D02*
D03*
Y5079980D02*
D03*
X4479707D02*
D03*
X4759742Y4995969D02*
D03*
X4710212D02*
D03*
X6219975Y4639945D02*
D03*
X6139965D02*
D03*
X6139914Y4559915D02*
D03*
X4631726Y4587918D02*
D03*
X6459954Y4719935D02*
D03*
X6379944Y4639925D02*
D03*
X4879757Y4679930D02*
D03*
X4559717Y4919960D02*
D03*
X4479707Y4999970D02*
D03*
X6179919Y5960090D02*
D03*
X4399697Y4919960D02*
D03*
Y5079980D02*
D03*
X9402322Y6774191D02*
D03*
X7099994Y4879955D02*
D03*
X8892258Y5616047D02*
D03*
X8836251Y5664053D02*
D03*
X8816249Y5740062D02*
D03*
X3653598Y6832200D02*
D03*
X4531485Y6660177D02*
D03*
X4506487Y6734429D02*
D03*
X7939911Y5167991D02*
D03*
X7943911Y5324010D02*
D03*
X4159667Y5900082D02*
D03*
X7340064Y5440025D02*
D03*
X6379944Y5680055D02*
D03*
X6459954D02*
D03*
X6619974Y5760065D02*
D03*
X6699984D02*
D03*
Y5680055D02*
D03*
X8872256Y6676179D02*
D03*
X7060029Y5280005D02*
D03*
X7140039Y5524035D02*
D03*
X3461383Y6702206D02*
D03*
X9040277Y7036224D02*
D03*
X6659979Y5199995D02*
D03*
X9240302Y6848201D02*
D03*
X9182146Y6838348D02*
D03*
X9308310Y6776192D02*
D03*
X3819624Y6736187D02*
D03*
X3887633Y6812196D02*
D03*
X3758857Y6675635D02*
D03*
X8596221Y6312134D02*
D03*
X8780244Y4859952D02*
D03*
X8900259D02*
D03*
X9104285Y5416022D02*
D03*
X9288308Y4199870D02*
D03*
X8960267Y3939837D02*
D03*
X9120287Y4019847D02*
D03*
X8800247Y3939837D02*
D03*
X9280307Y4055852D02*
D03*
X3553599Y6832200D02*
D03*
X7600097Y6620172D02*
D03*
X7480082D02*
D03*
X7360067D02*
D03*
X7240052Y6624173D02*
D03*
X7000022Y6620172D02*
D03*
X6880007D02*
D03*
X6759992D02*
D03*
X6639977D02*
D03*
X6519962D02*
D03*
X6399947D02*
D03*
X6279932D02*
D03*
X6039902D02*
D03*
X6159917D02*
D03*
X8764242Y6860202D02*
D03*
X6459954Y5520035D02*
D03*
X3579594Y7160240D02*
D03*
Y7000220D02*
D03*
X3523587Y6436149D02*
D03*
X3779619Y7199800D02*
D03*
X7500000Y5919998D02*
D03*
X6459954Y5280005D02*
D03*
X6461042Y5359274D02*
D03*
X6459954Y5440025D02*
D03*
X6659979Y5280005D02*
D03*
X4399697Y5560040D02*
D03*
X7100034Y5920085D02*
D03*
X7020024Y5919975D02*
D03*
X4419699Y6760190D02*
D03*
X4599722Y6940212D02*
D03*
X4023650Y6968216D02*
D03*
X4243677Y6792194D02*
D03*
X6319937Y6020097D02*
D03*
X6159917D02*
D03*
X5079782Y5600045D02*
D03*
X4959767Y4839950D02*
D03*
X4559717Y5400020D02*
D03*
X4399697Y4839950D02*
D03*
Y4999970D02*
D03*
X5079782Y5520035D02*
D03*
Y5680055D02*
D03*
X5039777Y4679930D02*
D03*
X8864255Y6496157D02*
D03*
X8772243Y6580167D02*
D03*
X6299934Y5440025D02*
D03*
X6819999Y6040100D02*
D03*
X6579969Y6320135D02*
D03*
X6819999Y6120110D02*
D03*
Y6200120D02*
D03*
X6539964Y6400145D02*
D03*
X6940014Y5920011D02*
D03*
X6739989Y6240125D02*
D03*
X6819999Y5960090D02*
D03*
X6739989D02*
D03*
X4479707Y5480030D02*
D03*
X7340064Y5199995D02*
D03*
X7260054D02*
D03*
X6539964Y5360015D02*
D03*
X6539997Y5200000D02*
D03*
X8160167Y5199995D02*
D03*
X7620099Y5320010D02*
D03*
X7500084Y5440025D02*
D03*
X7260174Y5280183D02*
D03*
X7260054Y5360015D02*
D03*
X6699984Y5520035D02*
D03*
X7100034Y4639925D02*
D03*
X7180044Y5199995D02*
D03*
X6779994Y5119985D02*
D03*
X6699984Y5360015D02*
D03*
X3659604Y6960215D02*
D03*
X3859629D02*
D03*
X3819624Y7040225D02*
D03*
X3751616Y6376142D02*
D03*
X7340001Y5759999D02*
D03*
X6619974Y5680055D02*
D03*
X8735969Y5464028D02*
D03*
X4319687Y4679930D02*
D03*
X4959767D02*
D03*
Y4759940D02*
D03*
X4879757Y4839950D02*
D03*
X6299934Y5280005D02*
D03*
Y5360015D02*
D03*
Y5199995D02*
D03*
X4479707Y5720060D02*
D03*
X6459954Y5199995D02*
D03*
X4479707Y5880080D02*
D03*
X6539964Y5119985D02*
D03*
X4879757Y5640050D02*
D03*
X4399697Y5720060D02*
D03*
X4879757Y4999970D02*
D03*
X4319687Y5880080D02*
D03*
Y5800070D02*
D03*
X4399697Y5400020D02*
D03*
X7020001Y5759999D02*
D03*
%TF.MD5,38eb6aa6b5893ddeaff4ef95cf3e7c0f*%
M02*
