%TF.GenerationSoftware,Altium Limited,Altium Designer,23.1.1 (15)*%
G04 Layer_Color=16711935*
%FSLAX45Y45*%
%MOMM*%
%TF.SameCoordinates,3FBC52AE-4862-4018-B763-16E4B67C7164*%
%TF.FilePolarity,Negative*%
%TF.FileFunction,Soldermask,Bot*%
%TF.Part,Single*%
G01*
G75*
%TA.AperFunction,ComponentPad*%
G04:AMPARAMS|DCode=63|XSize=1.1mm|YSize=2.6mm|CornerRadius=0.55mm|HoleSize=0mm|Usage=FLASHONLY|Rotation=270.000|XOffset=0mm|YOffset=0mm|HoleType=Round|Shape=RoundedRectangle|*
%AMROUNDEDRECTD63*
21,1,1.10000,1.50000,0,0,270.0*
21,1,0.00000,2.60000,0,0,270.0*
1,1,1.10000,-0.75000,0.00000*
1,1,1.10000,-0.75000,0.00000*
1,1,1.10000,0.75000,0.00000*
1,1,1.10000,0.75000,0.00000*
%
%ADD63ROUNDEDRECTD63*%
G04:AMPARAMS|DCode=64|XSize=1.1mm|YSize=2.1mm|CornerRadius=0.55mm|HoleSize=0mm|Usage=FLASHONLY|Rotation=270.000|XOffset=0mm|YOffset=0mm|HoleType=Round|Shape=RoundedRectangle|*
%AMROUNDEDRECTD64*
21,1,1.10000,1.00000,0,0,270.0*
21,1,0.00000,2.10000,0,0,270.0*
1,1,1.10000,-0.50000,0.00000*
1,1,1.10000,-0.50000,0.00000*
1,1,1.10000,0.50000,0.00000*
1,1,1.10000,0.50000,0.00000*
%
%ADD64ROUNDEDRECTD64*%
%TA.AperFunction,SMDPad,CuDef*%
%ADD83R,0.74008X0.70000*%
%ADD84R,0.70000X0.74008*%
%TA.AperFunction,ViaPad*%
%ADD98C,0.91280*%
D63*
X2767998Y4808000D02*
D03*
Y5672000D02*
D03*
X10872001D02*
D03*
Y4808000D02*
D03*
D64*
X3303998D02*
D03*
Y5672000D02*
D03*
X10336000D02*
D03*
Y4808000D02*
D03*
D83*
X7100034Y5530030D02*
D03*
Y5430030D02*
D03*
X7340064Y4729930D02*
D03*
Y4629930D02*
D03*
X6900009Y5089975D02*
D03*
Y4989975D02*
D03*
X6819999Y5089975D02*
D03*
Y4989975D02*
D03*
X6699984Y5430030D02*
D03*
Y5530029D02*
D03*
X6779994Y5430030D02*
D03*
Y5530029D02*
D03*
X6860004Y5430030D02*
D03*
Y5530029D02*
D03*
X7020024Y5430030D02*
D03*
Y5530029D02*
D03*
X6940014Y5430030D02*
D03*
Y5530029D02*
D03*
X7260054Y4729930D02*
D03*
Y4629930D02*
D03*
X6539964Y5530030D02*
D03*
Y5430030D02*
D03*
Y5710065D02*
D03*
Y5810064D02*
D03*
X6619974Y5530030D02*
D03*
Y5430030D02*
D03*
X6459954Y5710065D02*
D03*
Y5810064D02*
D03*
X7180044Y5530030D02*
D03*
Y5430030D02*
D03*
D84*
X6910004Y4639925D02*
D03*
X6810004D02*
D03*
X6609979Y4879955D02*
D03*
X6709979D02*
D03*
X6529956Y5612046D02*
D03*
X6429957D02*
D03*
X6910004Y4879955D02*
D03*
X6810004D02*
D03*
X7110029Y5039975D02*
D03*
X7010029D02*
D03*
X7250059Y4959965D02*
D03*
X7350059D02*
D03*
X7250059Y4879955D02*
D03*
X7350059D02*
D03*
X6609979Y4959965D02*
D03*
X6709979D02*
D03*
X7110029Y4879955D02*
D03*
X7010029D02*
D03*
X7110029Y4959965D02*
D03*
X7010029D02*
D03*
X6930019Y5199995D02*
D03*
X7030019D02*
D03*
X6789989Y5280005D02*
D03*
X6689989D02*
D03*
X6930019D02*
D03*
X7030019D02*
D03*
X6789989Y5199995D02*
D03*
X6689989D02*
D03*
X7190039D02*
D03*
X7090039D02*
D03*
X7110029Y4719935D02*
D03*
X7010029D02*
D03*
X6910004Y4799945D02*
D03*
X6810004D02*
D03*
X7010029D02*
D03*
X7110029D02*
D03*
X7110029Y4639925D02*
D03*
X7010029D02*
D03*
X6609979Y5039975D02*
D03*
X6709979D02*
D03*
X6609979Y5119985D02*
D03*
X6709979D02*
D03*
X6529969Y5356014D02*
D03*
X6629969D02*
D03*
X6529969Y5280005D02*
D03*
X6629969D02*
D03*
X6529969Y5199995D02*
D03*
X6629969D02*
D03*
X6409954Y4879955D02*
D03*
X6509954D02*
D03*
X8470211Y5420022D02*
D03*
X8570211D02*
D03*
X8570212Y5500032D02*
D03*
X8470212D02*
D03*
X7190039Y5280005D02*
D03*
X7090039D02*
D03*
D98*
X7940139Y4039850D02*
D03*
X8100159D02*
D03*
X7440077Y4199870D02*
D03*
X7240052D02*
D03*
Y4319885D02*
D03*
X7580094Y4679930D02*
D03*
X8100159Y4199870D02*
D03*
X7240052Y4439900D02*
D03*
%TF.MD5,5d24b22d44e5f02fb87315d321fcb5ca*%
M02*
